G75*
G70*
%OFA0B0*%
%FSLAX24Y24*%
%IPPOS*%
%LPD*%
%AMOC8*
5,1,8,0,0,1.08239X$1,22.5*
%
%ADD10C,0.0270*%
%ADD11C,0.0180*%
%ADD12C,0.0110*%
%ADD13C,0.0945*%
%ADD14C,0.1181*%
%ADD15C,0.1581*%
%ADD16C,0.0780*%
%ADD17OC8,0.0780*%
%ADD18C,0.0886*%
%ADD19C,0.0600*%
%ADD20C,0.0100*%
%ADD21C,0.0396*%
%ADD22C,0.0500*%
D10*
X004139Y000748D02*
X004550Y000748D01*
X004755Y000953D01*
X004755Y001363D01*
X004550Y001569D01*
X004139Y001569D01*
X003934Y001363D01*
X003934Y001158D01*
X004755Y001158D01*
X005315Y001569D02*
X005726Y000748D01*
X006136Y001569D01*
X006696Y001363D02*
X006901Y001569D01*
X007312Y001569D01*
X007517Y001363D01*
X007517Y000953D01*
X007312Y000748D01*
X006901Y000748D01*
X006696Y000953D01*
X006696Y001363D01*
X008077Y001979D02*
X008488Y001569D01*
X008898Y001979D01*
X008898Y000748D01*
X008077Y000748D02*
X008077Y001979D01*
X010815Y001569D02*
X011430Y001158D01*
X010815Y000748D01*
X011430Y000748D02*
X011430Y001979D01*
X011991Y001569D02*
X012606Y001569D01*
X012811Y001363D01*
X012811Y000953D01*
X012606Y000748D01*
X011991Y000748D01*
X013372Y000748D02*
X013987Y000748D01*
X014193Y000953D01*
X013987Y001158D01*
X013372Y001158D01*
X013372Y001363D02*
X013372Y000748D01*
X014958Y000953D02*
X014958Y001979D01*
X015163Y001979D02*
X014753Y001979D01*
X013987Y001569D02*
X013577Y001569D01*
X013372Y001363D01*
X014958Y000953D02*
X015163Y000748D01*
X015369Y000748D01*
X015574Y000953D01*
X017515Y001158D02*
X017515Y001363D01*
X017720Y001569D01*
X018131Y001569D01*
X018336Y001363D01*
X018336Y000953D01*
X018131Y000748D01*
X017720Y000748D01*
X018896Y000748D02*
X018896Y001363D01*
X019102Y001569D01*
X019307Y001363D01*
X019307Y000748D01*
X019717Y000748D02*
X019717Y001569D01*
X019512Y001569D01*
X019307Y001363D01*
X018336Y001158D02*
X017515Y001158D01*
X020228Y000748D02*
X020638Y000748D01*
X020433Y000748D02*
X020433Y001569D01*
X020638Y001569D01*
X020433Y001979D02*
X020433Y002184D01*
X021198Y001979D02*
X022019Y001979D01*
X021609Y001979D02*
X021609Y000748D01*
X023911Y000748D02*
X024321Y000748D01*
X024116Y000748D02*
X024116Y001979D01*
X024321Y001979D01*
X025036Y001979D02*
X025036Y000748D01*
X024831Y000748D02*
X025242Y000748D01*
X025802Y000748D02*
X025802Y001569D01*
X026623Y001569D02*
X026623Y000953D01*
X026418Y000748D01*
X025802Y000748D01*
X028004Y000748D02*
X028004Y001979D01*
X027183Y001979D01*
X025242Y001979D02*
X025036Y001979D01*
X027594Y001363D02*
X028004Y001363D01*
X029946Y001363D02*
X030766Y001363D01*
X030766Y001569D02*
X030356Y001979D01*
X029946Y001569D01*
X029946Y000748D01*
X030766Y000748D02*
X030766Y001569D01*
D11*
X008561Y002453D02*
X008288Y002726D01*
X008014Y002453D01*
X008014Y003274D01*
X007640Y003274D02*
X007093Y003274D01*
X007367Y003274D02*
X007367Y002453D01*
X006720Y002453D02*
X006720Y003274D01*
X006309Y003274D01*
X006173Y003137D01*
X006173Y002863D01*
X006309Y002726D01*
X006720Y002726D01*
X005799Y002863D02*
X005252Y002863D01*
X005252Y003000D02*
X005252Y002453D01*
X004878Y002453D02*
X004331Y003000D01*
X004331Y003137D01*
X004468Y003274D01*
X004741Y003274D01*
X004878Y003137D01*
X005252Y003000D02*
X005525Y003274D01*
X005799Y003000D01*
X005799Y002453D01*
X004878Y002453D02*
X004331Y002453D01*
X003957Y002453D02*
X003957Y002590D01*
X003821Y002590D01*
X003821Y002453D01*
X003957Y002453D01*
X003957Y002863D02*
X003821Y002863D01*
X003821Y003000D01*
X003957Y003000D01*
X003957Y002863D01*
X008561Y003274D02*
X008561Y002453D01*
D12*
X058210Y001643D02*
X058210Y001418D01*
X058360Y001418D02*
X058360Y001643D01*
X058285Y001718D01*
X058210Y001643D01*
X058360Y001643D02*
X058435Y001718D01*
X058510Y001718D01*
X058510Y001418D01*
X058726Y001493D02*
X058726Y001643D01*
X058801Y001718D01*
X058951Y001718D01*
X059026Y001643D01*
X059026Y001493D01*
X058951Y001418D01*
X058801Y001418D01*
X058726Y001493D01*
X059241Y001418D02*
X059466Y001418D01*
X059541Y001493D01*
X059541Y001643D01*
X059466Y001718D01*
X059241Y001718D01*
X060015Y001643D02*
X060015Y001568D01*
X060315Y001568D01*
X060315Y001643D02*
X060240Y001718D01*
X060090Y001718D01*
X060015Y001643D01*
X060090Y001418D02*
X060240Y001418D01*
X060315Y001493D01*
X060315Y001643D01*
X060530Y001718D02*
X060680Y001418D01*
X060831Y001718D01*
X061196Y001868D02*
X061196Y001418D01*
X061346Y001418D02*
X061046Y001418D01*
X061540Y001418D02*
X061615Y001493D01*
X061615Y001793D01*
X061690Y001718D02*
X061540Y001718D01*
X061346Y001718D02*
X061196Y001868D01*
X061905Y001643D02*
X061980Y001718D01*
X062131Y001718D01*
X062131Y001568D02*
X061905Y001568D01*
X061905Y001643D02*
X061905Y001418D01*
X062131Y001418D01*
X062206Y001493D01*
X062131Y001568D01*
X062410Y001718D02*
X062485Y001718D01*
X062635Y001568D01*
X062635Y001418D02*
X062635Y001718D01*
X062840Y001718D02*
X062915Y001718D01*
X063065Y001568D01*
X063065Y001418D02*
X063065Y001718D01*
X063280Y001643D02*
X063280Y001418D01*
X063506Y001418D01*
X063581Y001493D01*
X063506Y001568D01*
X063280Y001568D01*
X063280Y001643D02*
X063355Y001718D01*
X063506Y001718D01*
X063796Y001868D02*
X063796Y001418D01*
X064096Y001868D01*
X064096Y001418D01*
X059799Y001418D02*
X059724Y001418D01*
X059724Y001493D01*
X059799Y001493D01*
X059799Y001418D01*
D13*
X061151Y010113D03*
X063151Y010113D03*
D14*
X064001Y005113D03*
X062151Y005113D03*
X060301Y005113D03*
D15*
X003151Y004863D03*
X001261Y006044D03*
X003151Y007264D03*
D16*
X041651Y006284D02*
X041651Y005504D01*
X051651Y005504D02*
X051651Y006284D01*
D17*
X054604Y005894D03*
X053620Y004910D03*
X049683Y004910D03*
X048698Y005894D03*
X044604Y005894D03*
X043620Y004910D03*
X039683Y004910D03*
X038698Y005894D03*
X040667Y009831D03*
X042635Y009831D03*
X050667Y009831D03*
X052635Y009831D03*
D18*
X033805Y008863D03*
X029305Y008863D03*
X023805Y008863D03*
X019305Y008863D03*
X013805Y008863D03*
X009305Y008863D03*
X009305Y003863D03*
X013805Y003863D03*
X019305Y003863D03*
X023805Y003863D03*
X029305Y003863D03*
X033805Y003863D03*
D19*
X037151Y001663D02*
X037151Y001063D01*
X038151Y001063D02*
X038151Y001663D01*
X039151Y001663D02*
X039151Y001063D01*
X040151Y001063D02*
X040151Y001663D01*
X041151Y001663D02*
X041151Y001063D01*
X042151Y001063D02*
X042151Y001663D01*
X043151Y001663D02*
X043151Y001063D01*
X044151Y001063D02*
X044151Y001663D01*
X045151Y001663D02*
X045151Y001063D01*
X046151Y001063D02*
X046151Y001663D01*
X047151Y001663D02*
X047151Y001063D01*
X048151Y001063D02*
X048151Y001663D01*
X049151Y001663D02*
X049151Y001063D01*
D20*
X000401Y000613D02*
X000401Y005663D01*
X000437Y005588D01*
X000493Y005499D01*
X000559Y005416D01*
X000634Y005341D01*
X000716Y005276D01*
X000806Y005219D01*
X000901Y005174D01*
X001001Y005139D01*
X001104Y005115D01*
X001209Y005103D01*
X001211Y005103D01*
X001211Y005994D01*
X001311Y005994D01*
X001311Y005103D01*
X001314Y005103D01*
X001419Y005115D01*
X001522Y005139D01*
X001622Y005174D01*
X001717Y005219D01*
X001807Y005276D01*
X001889Y005341D01*
X001964Y005416D01*
X002030Y005499D01*
X002086Y005588D01*
X002132Y005683D01*
X002167Y005783D01*
X002190Y005886D01*
X002202Y005991D01*
X002202Y005994D01*
X001312Y005994D01*
X001312Y006094D01*
X002202Y006094D01*
X002202Y006097D01*
X002190Y006202D01*
X002167Y006305D01*
X002132Y006404D01*
X002086Y006500D01*
X002030Y006589D01*
X001964Y006672D01*
X001889Y006746D01*
X001807Y006812D01*
X001717Y006868D01*
X001622Y006914D01*
X001522Y006949D01*
X001419Y006973D01*
X001314Y006984D01*
X001311Y006984D01*
X001311Y006094D01*
X001211Y006094D01*
X001211Y006984D01*
X001209Y006984D01*
X001104Y006973D01*
X001001Y006949D01*
X000901Y006914D01*
X000806Y006868D01*
X000716Y006812D01*
X000634Y006746D01*
X000559Y006672D01*
X000493Y006589D01*
X000437Y006500D01*
X000401Y006425D01*
X000401Y010613D01*
X037151Y010613D01*
X037151Y005863D01*
X039651Y003363D01*
X039651Y000613D01*
X038293Y000613D01*
X038417Y000664D01*
X038550Y000797D01*
X038621Y000969D01*
X038621Y001756D01*
X038550Y001929D01*
X038417Y002061D01*
X038245Y002133D01*
X038058Y002133D01*
X037885Y002061D01*
X037753Y001929D01*
X037681Y001756D01*
X037681Y000969D01*
X037753Y000797D01*
X037885Y000664D01*
X038010Y000613D01*
X037293Y000613D01*
X037417Y000664D01*
X037550Y000797D01*
X037621Y000969D01*
X037621Y001756D01*
X037550Y001929D01*
X037417Y002061D01*
X037245Y002133D01*
X037058Y002133D01*
X036885Y002061D01*
X036753Y001929D01*
X036681Y001756D01*
X036681Y000969D01*
X036753Y000797D01*
X036885Y000664D01*
X037010Y000613D01*
X031040Y000613D01*
X031071Y000687D01*
X031071Y001303D01*
X031071Y001424D01*
X031071Y001508D01*
X031071Y001629D01*
X031025Y001741D01*
X030939Y001827D01*
X030939Y001827D01*
X030614Y002152D01*
X030529Y002237D01*
X030417Y002284D01*
X030295Y002284D01*
X030183Y002237D01*
X029773Y001827D01*
X029687Y001741D01*
X029641Y001629D01*
X029641Y001424D01*
X029641Y001303D01*
X029641Y000687D01*
X029671Y000613D01*
X028278Y000613D01*
X028309Y000687D01*
X028309Y001303D01*
X028309Y001424D01*
X028309Y001918D01*
X028309Y002040D01*
X028262Y002152D01*
X028177Y002237D01*
X028065Y002284D01*
X027123Y002284D01*
X027010Y002237D01*
X026925Y002152D01*
X026878Y002040D01*
X026878Y001918D01*
X026925Y001806D01*
X027010Y001720D01*
X027123Y001674D01*
X027699Y001674D01*
X027699Y001668D01*
X027533Y001668D01*
X027421Y001622D01*
X027335Y001536D01*
X027289Y001424D01*
X027289Y001303D01*
X027335Y001191D01*
X027421Y001105D01*
X027533Y001058D01*
X027699Y001058D01*
X027699Y000687D01*
X027730Y000613D01*
X026714Y000613D01*
X026881Y000780D01*
X026928Y000892D01*
X026928Y001014D01*
X026928Y001629D01*
X026881Y001741D01*
X026796Y001827D01*
X026683Y001873D01*
X026562Y001873D01*
X026450Y001827D01*
X026364Y001741D01*
X026318Y001629D01*
X026318Y001079D01*
X026291Y001053D01*
X026107Y001053D01*
X026107Y001629D01*
X026061Y001741D01*
X025975Y001827D01*
X025863Y001873D01*
X025741Y001873D01*
X025629Y001827D01*
X025544Y001741D01*
X025497Y001629D01*
X025497Y000924D01*
X025414Y001006D01*
X025341Y001037D01*
X025341Y001690D01*
X025414Y001720D01*
X025500Y001806D01*
X025547Y001918D01*
X025547Y002040D01*
X025500Y002152D01*
X025414Y002237D01*
X025302Y002284D01*
X025097Y002284D01*
X024976Y002284D01*
X024864Y002237D01*
X024778Y002152D01*
X024731Y002040D01*
X024731Y001037D01*
X024659Y001006D01*
X024576Y000924D01*
X024494Y001006D01*
X024421Y001037D01*
X024421Y001690D01*
X024494Y001720D01*
X024579Y001806D01*
X024626Y001918D01*
X024626Y002040D01*
X024579Y002152D01*
X024494Y002237D01*
X024382Y002284D01*
X024176Y002284D01*
X024055Y002284D01*
X023943Y002237D01*
X023857Y002152D01*
X023811Y002040D01*
X023811Y001037D01*
X023738Y001006D01*
X023652Y000921D01*
X023606Y000809D01*
X023606Y000687D01*
X023636Y000613D01*
X021883Y000613D01*
X021914Y000687D01*
X021914Y001674D01*
X022080Y001674D01*
X022192Y001720D01*
X022278Y001806D01*
X022324Y001918D01*
X022324Y002040D01*
X022278Y002152D01*
X022192Y002237D01*
X022080Y002284D01*
X021138Y002284D01*
X021026Y002237D01*
X020940Y002152D01*
X020893Y002040D01*
X020893Y001918D01*
X020940Y001806D01*
X021026Y001720D01*
X021138Y001674D01*
X021304Y001674D01*
X021304Y000687D01*
X021334Y000613D01*
X020912Y000613D01*
X020943Y000687D01*
X020943Y000809D01*
X020896Y000921D01*
X020811Y001006D01*
X020738Y001037D01*
X020738Y001280D01*
X020811Y001310D01*
X020896Y001396D01*
X020943Y001508D01*
X020943Y001629D01*
X020896Y001741D01*
X020811Y001827D01*
X020716Y001866D01*
X020738Y001918D01*
X020738Y002245D01*
X020691Y002357D01*
X020605Y002443D01*
X020493Y002489D01*
X020372Y002489D01*
X020260Y002443D01*
X020174Y002357D01*
X020128Y002245D01*
X020128Y001918D01*
X020174Y001806D01*
X020207Y001774D01*
X020174Y001741D01*
X020128Y001629D01*
X020128Y001037D01*
X020055Y001006D01*
X020022Y000974D01*
X020022Y001508D01*
X020022Y001629D01*
X019976Y001741D01*
X019890Y001827D01*
X019778Y001873D01*
X019573Y001873D01*
X019451Y001873D01*
X019339Y001827D01*
X019307Y001795D01*
X019274Y001827D01*
X019162Y001873D01*
X019041Y001873D01*
X019009Y001860D01*
X018929Y001827D01*
X018724Y001622D01*
X018638Y001536D01*
X018616Y001484D01*
X018594Y001536D01*
X018389Y001741D01*
X018304Y001827D01*
X018191Y001873D01*
X017781Y001873D01*
X017660Y001873D01*
X017548Y001827D01*
X017342Y001622D01*
X017257Y001536D01*
X017210Y001424D01*
X017210Y001219D01*
X017210Y001097D01*
X017257Y000985D01*
X017342Y000900D01*
X017437Y000860D01*
X017415Y000809D01*
X017415Y000687D01*
X017446Y000613D01*
X015665Y000613D01*
X015832Y000780D01*
X015879Y000892D01*
X015879Y001014D01*
X015832Y001126D01*
X015746Y001212D01*
X015634Y001258D01*
X015513Y001258D01*
X015401Y001212D01*
X015266Y001076D01*
X015263Y001079D01*
X015263Y001690D01*
X015336Y001720D01*
X015422Y001806D01*
X015468Y001918D01*
X015468Y002040D01*
X015422Y002152D01*
X015336Y002237D01*
X015224Y002284D01*
X014692Y002284D01*
X014580Y002237D01*
X014494Y002152D01*
X014448Y002040D01*
X014448Y001918D01*
X014494Y001806D01*
X014580Y001720D01*
X014653Y001690D01*
X014653Y000892D01*
X014666Y000860D01*
X014700Y000780D01*
X014785Y000694D01*
X014785Y000694D01*
X014867Y000613D01*
X014284Y000613D01*
X014365Y000694D01*
X014451Y000780D01*
X014497Y000892D01*
X014497Y001014D01*
X014451Y001126D01*
X014246Y001331D01*
X014213Y001363D01*
X014246Y001396D01*
X014292Y001508D01*
X014292Y001629D01*
X014246Y001741D01*
X014160Y001827D01*
X014048Y001873D01*
X013638Y001873D01*
X013516Y001873D01*
X013404Y001827D01*
X013199Y001622D01*
X013113Y001536D01*
X013092Y001484D01*
X013070Y001536D01*
X012984Y001622D01*
X012779Y001827D01*
X012667Y001873D01*
X012546Y001873D01*
X011930Y001873D01*
X011818Y001827D01*
X011735Y001744D01*
X011735Y002040D01*
X011689Y002152D01*
X011603Y002237D01*
X011491Y002284D01*
X011370Y002284D01*
X011257Y002237D01*
X011172Y002152D01*
X011125Y002040D01*
X011125Y001728D01*
X010933Y001856D01*
X010814Y001879D01*
X010695Y001856D01*
X010595Y001788D01*
X010527Y001687D01*
X010504Y001568D01*
X010528Y001449D01*
X010595Y001348D01*
X009203Y001348D01*
X009203Y001250D02*
X010743Y001250D01*
X010870Y001151D02*
X009203Y001151D01*
X009203Y001053D02*
X010722Y001053D01*
X010595Y000968D02*
X010528Y000867D01*
X010504Y000748D01*
X010527Y000629D01*
X010538Y000613D01*
X009172Y000613D01*
X009203Y000687D01*
X009203Y001918D01*
X009203Y002040D01*
X009157Y002152D01*
X009155Y002153D01*
X009071Y002237D01*
X008959Y002284D01*
X008837Y002284D01*
X008725Y002237D01*
X008722Y002234D01*
X008640Y002152D01*
X008640Y002152D01*
X008488Y002000D01*
X008336Y002152D01*
X008250Y002237D01*
X008191Y002262D01*
X008288Y002359D01*
X008414Y002232D01*
X008509Y002193D01*
X008613Y002193D01*
X008708Y002232D01*
X008782Y002306D01*
X008821Y002401D01*
X008821Y002505D01*
X008821Y003325D01*
X008782Y003421D01*
X008708Y003494D01*
X008613Y003533D01*
X008509Y003533D01*
X008414Y003494D01*
X008341Y003421D01*
X008301Y003325D01*
X008301Y002986D01*
X008274Y002986D01*
X008274Y003325D01*
X008234Y003421D01*
X008161Y003494D01*
X008066Y003533D01*
X007962Y003533D01*
X007867Y003494D01*
X007827Y003454D01*
X007788Y003494D01*
X007692Y003533D01*
X007042Y003533D01*
X006946Y003494D01*
X006906Y003454D01*
X006867Y003494D01*
X006771Y003533D01*
X006361Y003533D01*
X006258Y003533D01*
X006258Y003533D01*
X006162Y003494D01*
X006089Y003421D01*
X006089Y003421D01*
X006025Y003357D01*
X005952Y003284D01*
X005932Y003235D01*
X005746Y003421D01*
X005673Y003494D01*
X005673Y003494D01*
X005618Y003517D01*
X005577Y003533D01*
X005474Y003533D01*
X005378Y003494D01*
X005119Y003235D01*
X005099Y003284D01*
X004889Y003494D01*
X004793Y003533D01*
X004690Y003533D01*
X004416Y003533D01*
X004321Y003494D01*
X004247Y003421D01*
X004247Y003421D01*
X004184Y003357D01*
X004184Y003357D01*
X004112Y003286D01*
X004111Y003284D01*
X004111Y003284D01*
X004088Y003229D01*
X004087Y003228D01*
X004009Y003260D01*
X003769Y003260D01*
X003673Y003220D01*
X003600Y003147D01*
X003561Y003052D01*
X003561Y002948D01*
X003561Y002915D01*
X003561Y002811D01*
X003596Y002726D01*
X003561Y002641D01*
X003561Y002505D01*
X003561Y002401D01*
X003600Y002306D01*
X003673Y002232D01*
X003769Y002193D01*
X003906Y002193D01*
X004009Y002193D01*
X004105Y002232D01*
X004144Y002272D01*
X004184Y002232D01*
X004279Y002193D01*
X004826Y002193D01*
X004930Y002193D01*
X005025Y002232D01*
X005065Y002272D01*
X005105Y002232D01*
X005200Y002193D01*
X005304Y002193D01*
X005399Y002232D01*
X005472Y002306D01*
X005512Y002401D01*
X005512Y002603D01*
X005539Y002603D01*
X005539Y002401D01*
X005579Y002306D01*
X005652Y002232D01*
X005747Y002193D01*
X005851Y002193D01*
X005946Y002232D01*
X006019Y002306D01*
X006059Y002401D01*
X006059Y002609D01*
X006089Y002579D01*
X006162Y002506D01*
X006258Y002466D01*
X006460Y002466D01*
X006460Y002401D01*
X006499Y002306D01*
X006572Y002232D01*
X006668Y002193D01*
X006771Y002193D01*
X006867Y002232D01*
X006940Y002306D01*
X006980Y002401D01*
X006980Y002675D01*
X006980Y002778D01*
X006980Y003039D01*
X007042Y003014D01*
X007107Y003014D01*
X007107Y002401D01*
X007146Y002306D01*
X007220Y002232D01*
X007315Y002193D01*
X007419Y002193D01*
X007514Y002232D01*
X007587Y002306D01*
X007627Y002401D01*
X007627Y003014D01*
X007692Y003014D01*
X007754Y003039D01*
X007754Y002401D01*
X007794Y002306D01*
X007867Y002232D01*
X007890Y002223D01*
X007819Y002152D01*
X007772Y002040D01*
X007772Y001539D01*
X007485Y001827D01*
X007373Y001873D01*
X007251Y001873D01*
X006841Y001873D01*
X006729Y001827D01*
X006643Y001741D01*
X006439Y001538D01*
X006444Y001607D01*
X006406Y001722D01*
X006326Y001814D01*
X006218Y001868D01*
X006097Y001877D01*
X005982Y001839D01*
X005890Y001759D01*
X005726Y001430D01*
X005561Y001759D01*
X005469Y001839D01*
X005354Y001877D01*
X005233Y001868D01*
X005125Y001814D01*
X005045Y001722D01*
X005007Y001607D01*
X005012Y001538D01*
X004808Y001741D01*
X004722Y001827D01*
X004610Y001873D01*
X004200Y001873D01*
X004079Y001873D01*
X003966Y001827D01*
X003761Y001622D01*
X003675Y001536D01*
X003629Y001424D01*
X003629Y001219D01*
X003629Y001097D01*
X003675Y000985D01*
X003761Y000900D01*
X003856Y000860D01*
X003834Y000809D01*
X003834Y000687D01*
X003865Y000613D01*
X000401Y000613D01*
X000401Y000658D02*
X003846Y000658D01*
X003834Y000757D02*
X000401Y000757D01*
X000401Y000856D02*
X003854Y000856D01*
X003707Y000954D02*
X000401Y000954D01*
X000401Y001053D02*
X003648Y001053D01*
X003629Y001151D02*
X000401Y001151D01*
X000401Y001250D02*
X003629Y001250D01*
X003629Y001348D02*
X000401Y001348D01*
X000401Y001447D02*
X003639Y001447D01*
X003685Y001545D02*
X000401Y001545D01*
X000401Y001644D02*
X003783Y001644D01*
X003882Y001742D02*
X000401Y001742D01*
X000401Y001841D02*
X004000Y001841D01*
X004689Y001841D02*
X005178Y001841D01*
X005062Y001742D02*
X004807Y001742D01*
X004905Y001644D02*
X005019Y001644D01*
X005011Y001545D02*
X005004Y001545D01*
X005618Y001644D02*
X005833Y001644D01*
X005882Y001742D02*
X005569Y001742D01*
X005462Y001841D02*
X005989Y001841D01*
X006273Y001841D02*
X006762Y001841D01*
X006644Y001742D02*
X006389Y001742D01*
X006432Y001644D02*
X006546Y001644D01*
X006447Y001545D02*
X006440Y001545D01*
X005783Y001545D02*
X005668Y001545D01*
X005717Y001447D02*
X005734Y001447D01*
X007451Y001841D02*
X007772Y001841D01*
X007772Y001940D02*
X000401Y001940D01*
X000401Y002038D02*
X007772Y002038D01*
X007813Y002137D02*
X000401Y002137D01*
X000401Y002235D02*
X003671Y002235D01*
X003589Y002334D02*
X000401Y002334D01*
X000401Y002432D02*
X003561Y002432D01*
X003561Y002531D02*
X000401Y002531D01*
X000401Y002629D02*
X003561Y002629D01*
X003595Y002728D02*
X000401Y002728D01*
X000401Y002826D02*
X003561Y002826D01*
X003561Y002925D02*
X000401Y002925D01*
X000401Y003024D02*
X003561Y003024D01*
X003590Y003122D02*
X000401Y003122D01*
X000401Y003221D02*
X003674Y003221D01*
X004146Y003319D02*
X000401Y003319D01*
X000401Y003418D02*
X004244Y003418D01*
X004375Y003516D02*
X000401Y003516D01*
X000401Y003615D02*
X008744Y003615D01*
X008703Y003713D02*
X000401Y003713D01*
X000401Y003812D02*
X008692Y003812D01*
X008692Y003741D02*
X008785Y003516D01*
X008655Y003516D01*
X008785Y003516D02*
X008958Y003343D01*
X009183Y003250D01*
X009427Y003250D01*
X009652Y003343D01*
X009824Y003516D01*
X009918Y003741D01*
X009918Y003985D01*
X009824Y004210D01*
X009652Y004382D01*
X009427Y004476D01*
X009183Y004476D01*
X008958Y004382D01*
X008785Y004210D01*
X008692Y003985D01*
X008692Y003741D01*
X008692Y003910D02*
X003362Y003910D01*
X003342Y003902D02*
X003695Y004049D01*
X003965Y004319D01*
X004112Y004672D01*
X004112Y005054D01*
X003965Y005407D01*
X003695Y005677D01*
X003342Y005823D01*
X002960Y005823D01*
X002607Y005677D01*
X002337Y005407D01*
X002191Y005054D01*
X002191Y004672D01*
X002337Y004319D01*
X002607Y004049D01*
X002960Y003902D01*
X003342Y003902D01*
X003600Y004009D02*
X008702Y004009D01*
X008743Y004107D02*
X003754Y004107D01*
X003853Y004206D02*
X008784Y004206D01*
X008880Y004305D02*
X003951Y004305D01*
X004000Y004403D02*
X009008Y004403D01*
X009602Y004403D02*
X013559Y004403D01*
X013577Y004412D02*
X013494Y004370D01*
X013418Y004315D01*
X013352Y004249D01*
X013298Y004174D01*
X013255Y004090D01*
X013226Y004002D01*
X013212Y003913D01*
X013755Y003913D01*
X013755Y004455D01*
X013666Y004441D01*
X013577Y004412D01*
X013755Y004403D02*
X013855Y004403D01*
X013855Y004455D02*
X013855Y003913D01*
X014397Y003913D01*
X014383Y004002D01*
X014354Y004090D01*
X014312Y004174D01*
X014257Y004249D01*
X014191Y004315D01*
X014115Y004370D01*
X014032Y004412D01*
X013944Y004441D01*
X013855Y004455D01*
X013855Y004305D02*
X013755Y004305D01*
X013755Y004206D02*
X013855Y004206D01*
X013855Y004107D02*
X013755Y004107D01*
X013755Y004009D02*
X013855Y004009D01*
X013855Y003913D02*
X013755Y003913D01*
X013755Y003813D01*
X013855Y003813D01*
X013855Y003913D01*
X013855Y003910D02*
X018692Y003910D01*
X018692Y003985D02*
X018692Y003741D01*
X018785Y003516D01*
X014286Y003516D01*
X014312Y003552D02*
X014257Y003477D01*
X014191Y003411D01*
X014115Y003356D01*
X014032Y003313D01*
X013944Y003285D01*
X013855Y003270D01*
X013855Y003813D01*
X014397Y003813D01*
X014383Y003724D01*
X014354Y003635D01*
X014312Y003552D01*
X014344Y003615D02*
X018744Y003615D01*
X018703Y003713D02*
X014380Y003713D01*
X014397Y003812D02*
X018692Y003812D01*
X018692Y003985D02*
X018785Y004210D01*
X018958Y004382D01*
X019183Y004476D01*
X019427Y004476D01*
X019652Y004382D01*
X019824Y004210D01*
X019918Y003985D01*
X019918Y003741D01*
X019824Y003516D01*
X019652Y003343D01*
X019427Y003250D01*
X019183Y003250D01*
X018958Y003343D01*
X018785Y003516D01*
X018883Y003418D02*
X014198Y003418D01*
X014044Y003319D02*
X019016Y003319D01*
X019594Y003319D02*
X023516Y003319D01*
X023458Y003343D02*
X023683Y003250D01*
X023927Y003250D01*
X024152Y003343D01*
X024324Y003516D01*
X024418Y003741D01*
X024418Y003985D01*
X024324Y004210D01*
X024152Y004382D01*
X023927Y004476D01*
X023683Y004476D01*
X023458Y004382D01*
X023285Y004210D01*
X023192Y003985D01*
X023192Y003741D01*
X023285Y003516D01*
X019825Y003516D01*
X019865Y003615D02*
X023244Y003615D01*
X023203Y003713D02*
X019906Y003713D01*
X019918Y003812D02*
X023192Y003812D01*
X023192Y003910D02*
X019918Y003910D01*
X019908Y004009D02*
X023202Y004009D01*
X023243Y004107D02*
X019867Y004107D01*
X019826Y004206D02*
X023284Y004206D01*
X023380Y004305D02*
X019730Y004305D01*
X019602Y004403D02*
X023508Y004403D01*
X024102Y004403D02*
X029008Y004403D01*
X028958Y004382D02*
X028785Y004210D01*
X028692Y003985D01*
X028692Y003741D01*
X028785Y003516D01*
X024325Y003516D01*
X024365Y003615D02*
X028744Y003615D01*
X028703Y003713D02*
X024406Y003713D01*
X024418Y003812D02*
X028692Y003812D01*
X028692Y003910D02*
X024418Y003910D01*
X024408Y004009D02*
X028702Y004009D01*
X028743Y004107D02*
X024367Y004107D01*
X024326Y004206D02*
X028784Y004206D01*
X028880Y004305D02*
X024230Y004305D01*
X024226Y003418D02*
X028883Y003418D01*
X028958Y003343D02*
X028785Y003516D01*
X028958Y003343D02*
X029183Y003250D01*
X029427Y003250D01*
X029652Y003343D01*
X029824Y003516D01*
X029918Y003741D01*
X029918Y003985D01*
X029824Y004210D01*
X029652Y004382D01*
X029427Y004476D01*
X029183Y004476D01*
X028958Y004382D01*
X029602Y004403D02*
X033508Y004403D01*
X033458Y004382D02*
X033285Y004210D01*
X033192Y003985D01*
X033192Y003741D01*
X033285Y003516D01*
X029825Y003516D01*
X029865Y003615D02*
X033244Y003615D01*
X033203Y003713D02*
X029906Y003713D01*
X029918Y003812D02*
X033192Y003812D01*
X033192Y003910D02*
X029918Y003910D01*
X029908Y004009D02*
X033202Y004009D01*
X033243Y004107D02*
X029867Y004107D01*
X029826Y004206D02*
X033284Y004206D01*
X033380Y004305D02*
X029730Y004305D01*
X029726Y003418D02*
X033383Y003418D01*
X033458Y003343D02*
X033285Y003516D01*
X033458Y003343D02*
X033683Y003250D01*
X033927Y003250D01*
X034152Y003343D01*
X034324Y003516D01*
X034418Y003741D01*
X034418Y003985D01*
X034324Y004210D01*
X034152Y004382D01*
X033927Y004476D01*
X033683Y004476D01*
X033458Y004382D01*
X034102Y004403D02*
X038611Y004403D01*
X038709Y004305D02*
X034230Y004305D01*
X034326Y004206D02*
X038808Y004206D01*
X038907Y004107D02*
X034367Y004107D01*
X034408Y004009D02*
X039005Y004009D01*
X039104Y003910D02*
X034418Y003910D01*
X034418Y003812D02*
X039202Y003812D01*
X039301Y003713D02*
X034406Y003713D01*
X034365Y003615D02*
X039399Y003615D01*
X039498Y003516D02*
X034325Y003516D01*
X034226Y003418D02*
X039596Y003418D01*
X039651Y003319D02*
X034094Y003319D01*
X033516Y003319D02*
X029594Y003319D01*
X029016Y003319D02*
X024094Y003319D01*
X023458Y003343D02*
X023285Y003516D01*
X023383Y003418D02*
X019726Y003418D01*
X018702Y004009D02*
X014381Y004009D01*
X014346Y004107D02*
X018743Y004107D01*
X018784Y004206D02*
X014288Y004206D01*
X014201Y004305D02*
X018880Y004305D01*
X019008Y004403D02*
X014050Y004403D01*
X013408Y004305D02*
X009730Y004305D01*
X009826Y004206D02*
X013321Y004206D01*
X013264Y004107D02*
X009867Y004107D01*
X009908Y004009D02*
X013229Y004009D01*
X013212Y003813D02*
X013226Y003724D01*
X013255Y003635D01*
X013298Y003552D01*
X013352Y003477D01*
X013418Y003411D01*
X013494Y003356D01*
X013577Y003313D01*
X013666Y003285D01*
X013755Y003270D01*
X013755Y003813D01*
X013212Y003813D01*
X013212Y003812D02*
X009918Y003812D01*
X009918Y003910D02*
X013755Y003910D01*
X013755Y003812D02*
X013855Y003812D01*
X013855Y003713D02*
X013755Y003713D01*
X013755Y003615D02*
X013855Y003615D01*
X013855Y003516D02*
X013755Y003516D01*
X013755Y003418D02*
X013855Y003418D01*
X013855Y003319D02*
X013755Y003319D01*
X013566Y003319D02*
X009594Y003319D01*
X009726Y003418D02*
X013411Y003418D01*
X013324Y003516D02*
X009825Y003516D01*
X009865Y003615D02*
X013266Y003615D01*
X013230Y003713D02*
X009906Y003713D01*
X008883Y003418D02*
X008783Y003418D01*
X008821Y003319D02*
X009016Y003319D01*
X008821Y003221D02*
X039651Y003221D01*
X039651Y003122D02*
X008821Y003122D01*
X008821Y003024D02*
X039651Y003024D01*
X039651Y002925D02*
X008821Y002925D01*
X008821Y002826D02*
X039651Y002826D01*
X039651Y002728D02*
X008821Y002728D01*
X008821Y002629D02*
X039651Y002629D01*
X039651Y002531D02*
X008821Y002531D01*
X008821Y002432D02*
X020250Y002432D01*
X020165Y002334D02*
X008793Y002334D01*
X008723Y002235D02*
X008711Y002235D01*
X008625Y002137D02*
X008351Y002137D01*
X008411Y002235D02*
X008252Y002235D01*
X008263Y002334D02*
X008313Y002334D01*
X007864Y002235D02*
X007517Y002235D01*
X007599Y002334D02*
X007782Y002334D01*
X007754Y002432D02*
X007627Y002432D01*
X007627Y002531D02*
X007754Y002531D01*
X007754Y002629D02*
X007627Y002629D01*
X007627Y002728D02*
X007754Y002728D01*
X007754Y002826D02*
X007627Y002826D01*
X007627Y002925D02*
X007754Y002925D01*
X007754Y003024D02*
X007716Y003024D01*
X008274Y003024D02*
X008301Y003024D01*
X008301Y003122D02*
X008274Y003122D01*
X008274Y003221D02*
X008301Y003221D01*
X008301Y003319D02*
X008274Y003319D01*
X008236Y003418D02*
X008339Y003418D01*
X008468Y003516D02*
X008107Y003516D01*
X007921Y003516D02*
X007734Y003516D01*
X007000Y003516D02*
X006813Y003516D01*
X006216Y003516D02*
X005619Y003516D01*
X005749Y003418D02*
X006086Y003418D01*
X006025Y003357D02*
X006025Y003357D01*
X005987Y003319D02*
X005847Y003319D01*
X005432Y003516D02*
X004835Y003516D01*
X004965Y003418D02*
X005302Y003418D01*
X005203Y003319D02*
X005063Y003319D01*
X006980Y003024D02*
X007017Y003024D01*
X006980Y002925D02*
X007107Y002925D01*
X007107Y002826D02*
X006980Y002826D01*
X006980Y002728D02*
X007107Y002728D01*
X007107Y002629D02*
X006980Y002629D01*
X006980Y002531D02*
X007107Y002531D01*
X007107Y002432D02*
X006980Y002432D01*
X006952Y002334D02*
X007135Y002334D01*
X007217Y002235D02*
X006870Y002235D01*
X006570Y002235D02*
X005949Y002235D01*
X006031Y002334D02*
X006488Y002334D01*
X006460Y002432D02*
X006059Y002432D01*
X006059Y002531D02*
X006137Y002531D01*
X006089Y002579D02*
X006089Y002579D01*
X005539Y002531D02*
X005512Y002531D01*
X005512Y002432D02*
X005539Y002432D01*
X005567Y002334D02*
X005484Y002334D01*
X005402Y002235D02*
X005649Y002235D01*
X005102Y002235D02*
X005028Y002235D01*
X004181Y002235D02*
X004107Y002235D01*
X007569Y001742D02*
X007772Y001742D01*
X007772Y001644D02*
X007668Y001644D01*
X007766Y001545D02*
X007772Y001545D01*
X009203Y001545D02*
X010508Y001545D01*
X010519Y001644D02*
X009203Y001644D01*
X009203Y001742D02*
X010564Y001742D01*
X010674Y001841D02*
X009203Y001841D01*
X009203Y001940D02*
X011125Y001940D01*
X011125Y002038D02*
X009203Y002038D01*
X009163Y002137D02*
X011165Y002137D01*
X011255Y002235D02*
X009073Y002235D01*
X008959Y002284D02*
X008959Y002284D01*
X008526Y002038D02*
X008450Y002038D01*
X009203Y001447D02*
X010529Y001447D01*
X010595Y001348D02*
X010880Y001158D01*
X010595Y000968D01*
X010586Y000954D02*
X009203Y000954D01*
X009203Y000856D02*
X010525Y000856D01*
X010506Y000757D02*
X009203Y000757D01*
X009191Y000658D02*
X010521Y000658D01*
X014229Y001348D02*
X014653Y001348D01*
X014653Y001250D02*
X014327Y001250D01*
X014426Y001151D02*
X014653Y001151D01*
X014653Y001053D02*
X014481Y001053D01*
X014497Y000954D02*
X014653Y000954D01*
X014653Y000892D02*
X014653Y000892D01*
X014668Y000856D02*
X014482Y000856D01*
X014428Y000757D02*
X014723Y000757D01*
X014821Y000658D02*
X014329Y000658D01*
X015710Y000658D02*
X017427Y000658D01*
X017415Y000757D02*
X015809Y000757D01*
X015863Y000856D02*
X017435Y000856D01*
X017288Y000954D02*
X015879Y000954D01*
X015863Y001053D02*
X017229Y001053D01*
X017210Y001151D02*
X015807Y001151D01*
X015654Y001250D02*
X017210Y001250D01*
X017210Y001348D02*
X015263Y001348D01*
X015263Y001250D02*
X015493Y001250D01*
X015341Y001151D02*
X015263Y001151D01*
X015263Y001447D02*
X017220Y001447D01*
X017266Y001545D02*
X015263Y001545D01*
X015263Y001644D02*
X017364Y001644D01*
X017463Y001742D02*
X015358Y001742D01*
X015436Y001841D02*
X017581Y001841D01*
X018270Y001841D02*
X018962Y001841D01*
X019041Y001873D02*
X019041Y001873D01*
X019241Y001841D02*
X019373Y001841D01*
X019856Y001841D02*
X020160Y001841D01*
X020175Y001742D02*
X019974Y001742D01*
X020016Y001644D02*
X020134Y001644D01*
X020128Y001545D02*
X020022Y001545D01*
X020022Y001447D02*
X020128Y001447D01*
X020128Y001348D02*
X020022Y001348D01*
X020022Y001250D02*
X020128Y001250D01*
X020128Y001151D02*
X020022Y001151D01*
X020022Y001053D02*
X020128Y001053D01*
X020738Y001053D02*
X021304Y001053D01*
X021304Y001151D02*
X020738Y001151D01*
X020738Y001250D02*
X021304Y001250D01*
X021304Y001348D02*
X020849Y001348D01*
X020918Y001447D02*
X021304Y001447D01*
X021304Y001545D02*
X020943Y001545D01*
X020937Y001644D02*
X021304Y001644D01*
X021003Y001742D02*
X020895Y001742D01*
X020925Y001841D02*
X020777Y001841D01*
X020738Y001940D02*
X020893Y001940D01*
X020893Y002038D02*
X020738Y002038D01*
X020738Y002137D02*
X020934Y002137D01*
X021023Y002235D02*
X020738Y002235D01*
X020701Y002334D02*
X039651Y002334D01*
X039651Y002432D02*
X020616Y002432D01*
X020128Y002235D02*
X015338Y002235D01*
X015428Y002137D02*
X020128Y002137D01*
X020128Y002038D02*
X015468Y002038D01*
X015468Y001940D02*
X020128Y001940D01*
X018844Y001742D02*
X018388Y001742D01*
X018389Y001741D02*
X018389Y001741D01*
X018487Y001644D02*
X018746Y001644D01*
X018647Y001545D02*
X018585Y001545D01*
X020863Y000954D02*
X021304Y000954D01*
X021304Y000856D02*
X020923Y000856D01*
X020943Y000757D02*
X021304Y000757D01*
X021316Y000658D02*
X020931Y000658D01*
X021902Y000658D02*
X023617Y000658D01*
X023606Y000757D02*
X021914Y000757D01*
X021914Y000856D02*
X023625Y000856D01*
X023685Y000954D02*
X021914Y000954D01*
X021914Y001053D02*
X023811Y001053D01*
X023811Y001151D02*
X021914Y001151D01*
X021914Y001250D02*
X023811Y001250D01*
X023811Y001348D02*
X021914Y001348D01*
X021914Y001447D02*
X023811Y001447D01*
X023811Y001545D02*
X021914Y001545D01*
X021914Y001644D02*
X023811Y001644D01*
X023811Y001742D02*
X022214Y001742D01*
X022292Y001841D02*
X023811Y001841D01*
X023811Y001940D02*
X022324Y001940D01*
X022324Y002038D02*
X023811Y002038D01*
X023851Y002137D02*
X022284Y002137D01*
X022194Y002235D02*
X023941Y002235D01*
X024496Y002235D02*
X024861Y002235D01*
X024772Y002137D02*
X024586Y002137D01*
X024626Y002038D02*
X024731Y002038D01*
X024731Y001940D02*
X024626Y001940D01*
X024594Y001841D02*
X024731Y001841D01*
X024731Y001742D02*
X024516Y001742D01*
X024421Y001644D02*
X024731Y001644D01*
X024731Y001545D02*
X024421Y001545D01*
X024421Y001447D02*
X024731Y001447D01*
X024731Y001348D02*
X024421Y001348D01*
X024421Y001250D02*
X024731Y001250D01*
X024731Y001151D02*
X024421Y001151D01*
X024421Y001053D02*
X024731Y001053D01*
X024606Y000954D02*
X024546Y000954D01*
X025341Y001053D02*
X025497Y001053D01*
X025497Y001151D02*
X025341Y001151D01*
X025341Y001250D02*
X025497Y001250D01*
X025497Y001348D02*
X025341Y001348D01*
X025341Y001447D02*
X025497Y001447D01*
X025497Y001545D02*
X025341Y001545D01*
X025341Y001644D02*
X025503Y001644D01*
X025545Y001742D02*
X025437Y001742D01*
X025515Y001841D02*
X025663Y001841D01*
X025547Y001940D02*
X026878Y001940D01*
X026878Y002038D02*
X025547Y002038D01*
X025506Y002137D02*
X026918Y002137D01*
X027008Y002235D02*
X025417Y002235D01*
X025941Y001841D02*
X026484Y001841D01*
X026365Y001742D02*
X026059Y001742D01*
X026101Y001644D02*
X026324Y001644D01*
X026318Y001545D02*
X026107Y001545D01*
X026107Y001447D02*
X026318Y001447D01*
X026318Y001348D02*
X026107Y001348D01*
X026107Y001250D02*
X026318Y001250D01*
X026318Y001151D02*
X026107Y001151D01*
X026928Y001151D02*
X027374Y001151D01*
X027310Y001250D02*
X026928Y001250D01*
X026928Y001348D02*
X027289Y001348D01*
X027298Y001447D02*
X026928Y001447D01*
X026928Y001545D02*
X027344Y001545D01*
X027474Y001644D02*
X026922Y001644D01*
X026880Y001742D02*
X026988Y001742D01*
X026910Y001841D02*
X026762Y001841D01*
X028179Y002235D02*
X030181Y002235D01*
X030082Y002137D02*
X028269Y002137D01*
X028309Y002038D02*
X029984Y002038D01*
X029885Y001940D02*
X028309Y001940D01*
X028309Y001841D02*
X029787Y001841D01*
X029688Y001742D02*
X028309Y001742D01*
X028309Y001644D02*
X029647Y001644D01*
X029641Y001545D02*
X028309Y001545D01*
X028309Y001447D02*
X029641Y001447D01*
X029641Y001348D02*
X028309Y001348D01*
X028309Y001250D02*
X029641Y001250D01*
X029641Y001151D02*
X028309Y001151D01*
X028309Y001053D02*
X029641Y001053D01*
X029641Y000954D02*
X028309Y000954D01*
X028309Y000856D02*
X029641Y000856D01*
X029641Y000757D02*
X028309Y000757D01*
X028297Y000658D02*
X029652Y000658D01*
X031059Y000658D02*
X036899Y000658D01*
X036792Y000757D02*
X031071Y000757D01*
X031071Y000856D02*
X036728Y000856D01*
X036687Y000954D02*
X031071Y000954D01*
X031071Y001053D02*
X036681Y001053D01*
X036681Y001151D02*
X031071Y001151D01*
X031071Y001250D02*
X036681Y001250D01*
X036681Y001348D02*
X031071Y001348D01*
X031071Y001447D02*
X036681Y001447D01*
X036681Y001545D02*
X031071Y001545D01*
X031071Y001629D02*
X031071Y001629D01*
X031065Y001644D02*
X036681Y001644D01*
X036681Y001742D02*
X031024Y001742D01*
X030925Y001841D02*
X036716Y001841D01*
X036763Y001940D02*
X030826Y001940D01*
X030728Y002038D02*
X036862Y002038D01*
X037441Y002038D02*
X037862Y002038D01*
X037763Y001940D02*
X037539Y001940D01*
X037586Y001841D02*
X037716Y001841D01*
X037681Y001742D02*
X037621Y001742D01*
X037621Y001644D02*
X037681Y001644D01*
X037681Y001545D02*
X037621Y001545D01*
X037621Y001447D02*
X037681Y001447D01*
X037681Y001348D02*
X037621Y001348D01*
X037621Y001250D02*
X037681Y001250D01*
X037681Y001151D02*
X037621Y001151D01*
X037621Y001053D02*
X037681Y001053D01*
X037687Y000954D02*
X037615Y000954D01*
X037574Y000856D02*
X037728Y000856D01*
X037792Y000757D02*
X037510Y000757D01*
X037403Y000658D02*
X037899Y000658D01*
X038403Y000658D02*
X038954Y000658D01*
X038978Y000646D02*
X039046Y000624D01*
X039101Y000615D01*
X039101Y001313D01*
X038701Y001313D01*
X038701Y001027D01*
X038712Y000957D01*
X038734Y000890D01*
X038766Y000827D01*
X038808Y000770D01*
X038858Y000720D01*
X038915Y000678D01*
X038978Y000646D01*
X039101Y000658D02*
X039201Y000658D01*
X039201Y000615D02*
X039257Y000624D01*
X039324Y000646D01*
X039387Y000678D01*
X039444Y000720D01*
X039494Y000770D01*
X039536Y000827D01*
X039568Y000890D01*
X039590Y000957D01*
X039601Y001027D01*
X039601Y001313D01*
X039201Y001313D01*
X039201Y001413D01*
X039101Y001413D01*
X039101Y002110D01*
X039046Y002102D01*
X038978Y002080D01*
X038915Y002048D01*
X038858Y002006D01*
X038808Y001956D01*
X038766Y001899D01*
X038734Y001836D01*
X038712Y001768D01*
X038701Y001698D01*
X038701Y001413D01*
X039101Y001413D01*
X039101Y001313D01*
X039201Y001313D01*
X039201Y000615D01*
X039201Y000757D02*
X039101Y000757D01*
X039101Y000856D02*
X039201Y000856D01*
X039201Y000954D02*
X039101Y000954D01*
X039101Y001053D02*
X039201Y001053D01*
X039201Y001151D02*
X039101Y001151D01*
X039101Y001250D02*
X039201Y001250D01*
X039201Y001348D02*
X039651Y001348D01*
X039601Y001413D02*
X039601Y001698D01*
X039590Y001768D01*
X039568Y001836D01*
X039536Y001899D01*
X039494Y001956D01*
X039444Y002006D01*
X039387Y002048D01*
X039324Y002080D01*
X039257Y002102D01*
X039201Y002110D01*
X039201Y001413D01*
X039601Y001413D01*
X039601Y001447D02*
X039651Y001447D01*
X039651Y001545D02*
X039601Y001545D01*
X039601Y001644D02*
X039651Y001644D01*
X039651Y001742D02*
X039594Y001742D01*
X039565Y001841D02*
X039651Y001841D01*
X039651Y001940D02*
X039506Y001940D01*
X039400Y002038D02*
X039651Y002038D01*
X039651Y002137D02*
X030629Y002137D01*
X030614Y002152D02*
X030614Y002152D01*
X030531Y002235D02*
X039651Y002235D01*
X039201Y002038D02*
X039101Y002038D01*
X039101Y001940D02*
X039201Y001940D01*
X039201Y001841D02*
X039101Y001841D01*
X039101Y001742D02*
X039201Y001742D01*
X039201Y001644D02*
X039101Y001644D01*
X039101Y001545D02*
X039201Y001545D01*
X039201Y001447D02*
X039101Y001447D01*
X039101Y001348D02*
X038621Y001348D01*
X038621Y001250D02*
X038701Y001250D01*
X038701Y001151D02*
X038621Y001151D01*
X038621Y001053D02*
X038701Y001053D01*
X038713Y000954D02*
X038615Y000954D01*
X038574Y000856D02*
X038752Y000856D01*
X038821Y000757D02*
X038510Y000757D01*
X039349Y000658D02*
X039651Y000658D01*
X039651Y000757D02*
X039482Y000757D01*
X039551Y000856D02*
X039651Y000856D01*
X039651Y000954D02*
X039589Y000954D01*
X039601Y001053D02*
X039651Y001053D01*
X039651Y001151D02*
X039601Y001151D01*
X039601Y001250D02*
X039651Y001250D01*
X038701Y001447D02*
X038621Y001447D01*
X038621Y001545D02*
X038701Y001545D01*
X038701Y001644D02*
X038621Y001644D01*
X038621Y001742D02*
X038708Y001742D01*
X038737Y001841D02*
X038586Y001841D01*
X038539Y001940D02*
X038796Y001940D01*
X038902Y002038D02*
X038441Y002038D01*
X041151Y001363D02*
X041151Y003363D01*
X038512Y004502D02*
X004041Y004502D01*
X004082Y004600D02*
X038414Y004600D01*
X038315Y004699D02*
X004112Y004699D01*
X004112Y004797D02*
X038217Y004797D01*
X038118Y004896D02*
X004112Y004896D01*
X004112Y004994D02*
X038020Y004994D01*
X037921Y005093D02*
X004096Y005093D01*
X004055Y005191D02*
X037823Y005191D01*
X037724Y005290D02*
X004014Y005290D01*
X003973Y005389D02*
X037625Y005389D01*
X037527Y005487D02*
X003885Y005487D01*
X003787Y005586D02*
X037428Y005586D01*
X037330Y005684D02*
X003678Y005684D01*
X003440Y005783D02*
X037231Y005783D01*
X037151Y005881D02*
X002189Y005881D01*
X002201Y005980D02*
X037151Y005980D01*
X037151Y006078D02*
X001312Y006078D01*
X001311Y005980D02*
X001211Y005980D01*
X001211Y005881D02*
X001311Y005881D01*
X001311Y005783D02*
X001211Y005783D01*
X001211Y005684D02*
X001311Y005684D01*
X001311Y005586D02*
X001211Y005586D01*
X001211Y005487D02*
X001311Y005487D01*
X001311Y005389D02*
X001211Y005389D01*
X001211Y005290D02*
X001311Y005290D01*
X001311Y005191D02*
X001211Y005191D01*
X000864Y005191D02*
X000401Y005191D01*
X000401Y005093D02*
X002207Y005093D01*
X002191Y004994D02*
X000401Y004994D01*
X000401Y004896D02*
X002191Y004896D01*
X002191Y004797D02*
X000401Y004797D01*
X000401Y004699D02*
X002191Y004699D01*
X002220Y004600D02*
X000401Y004600D01*
X000401Y004502D02*
X002261Y004502D01*
X002302Y004403D02*
X000401Y004403D01*
X000401Y004305D02*
X002351Y004305D01*
X002450Y004206D02*
X000401Y004206D01*
X000401Y004107D02*
X002548Y004107D01*
X002703Y004009D02*
X000401Y004009D01*
X000401Y003910D02*
X002940Y003910D01*
X002248Y005191D02*
X001659Y005191D01*
X001825Y005290D02*
X002288Y005290D01*
X002329Y005389D02*
X001936Y005389D01*
X002020Y005487D02*
X002417Y005487D01*
X002516Y005586D02*
X002084Y005586D01*
X002132Y005684D02*
X002624Y005684D01*
X002862Y005783D02*
X002166Y005783D01*
X002193Y006177D02*
X037151Y006177D01*
X037151Y006275D02*
X002173Y006275D01*
X002142Y006374D02*
X002848Y006374D01*
X002890Y006359D02*
X002993Y006336D01*
X003098Y006324D01*
X003101Y006324D01*
X003101Y007214D01*
X003201Y007214D01*
X003201Y006324D01*
X003204Y006324D01*
X003309Y006336D01*
X003412Y006359D01*
X003512Y006394D01*
X003607Y006440D01*
X003696Y006496D01*
X003779Y006562D01*
X003854Y006637D01*
X003919Y006719D01*
X003976Y006809D01*
X004021Y006904D01*
X004056Y007004D01*
X004080Y007107D01*
X004092Y007212D01*
X004092Y007214D01*
X003201Y007214D01*
X003201Y007314D01*
X004092Y007314D01*
X004092Y007317D01*
X004080Y007422D01*
X004056Y007525D01*
X004021Y007625D01*
X003976Y007720D01*
X003919Y007810D01*
X003854Y007892D01*
X003779Y007967D01*
X003696Y008033D01*
X003607Y008089D01*
X003512Y008135D01*
X003412Y008170D01*
X003309Y008193D01*
X003204Y008205D01*
X003201Y008205D01*
X003201Y007315D01*
X003101Y007315D01*
X003101Y008205D01*
X003098Y008205D01*
X002993Y008193D01*
X002890Y008170D01*
X002791Y008135D01*
X002695Y008089D01*
X002606Y008033D01*
X002523Y007967D01*
X002449Y007892D01*
X002383Y007810D01*
X002327Y007720D01*
X002281Y007625D01*
X002246Y007525D01*
X002222Y007422D01*
X002211Y007317D01*
X002211Y007314D01*
X003101Y007314D01*
X003101Y007214D01*
X002211Y007214D01*
X002211Y007212D01*
X002222Y007107D01*
X002246Y007004D01*
X002281Y006904D01*
X002327Y006809D01*
X002383Y006719D01*
X002449Y006637D01*
X002523Y006562D01*
X002606Y006496D01*
X002695Y006440D01*
X002791Y006394D01*
X002890Y006359D01*
X003101Y006374D02*
X003201Y006374D01*
X003201Y006473D02*
X003101Y006473D01*
X003101Y006571D02*
X003201Y006571D01*
X003201Y006670D02*
X003101Y006670D01*
X003101Y006768D02*
X003201Y006768D01*
X003201Y006867D02*
X003101Y006867D01*
X003101Y006965D02*
X003201Y006965D01*
X003201Y007064D02*
X003101Y007064D01*
X003101Y007162D02*
X003201Y007162D01*
X003201Y007261D02*
X008750Y007261D01*
X008759Y007238D02*
X008940Y007057D01*
X009177Y006959D01*
X009433Y006959D01*
X009669Y007057D01*
X009850Y007238D01*
X009948Y007475D01*
X009948Y007731D01*
X009850Y007968D01*
X009669Y008149D01*
X009433Y008247D01*
X009177Y008247D01*
X008940Y008149D01*
X008759Y007968D01*
X008661Y007731D01*
X008661Y007475D01*
X008759Y007238D01*
X008835Y007162D02*
X004086Y007162D01*
X004070Y007064D02*
X008934Y007064D01*
X009162Y006965D02*
X004043Y006965D01*
X004004Y006867D02*
X037151Y006867D01*
X037151Y006965D02*
X033947Y006965D01*
X033933Y006959D02*
X034169Y007057D01*
X034350Y007238D01*
X034448Y007475D01*
X034448Y007731D01*
X034350Y007968D01*
X034169Y008149D01*
X033933Y008247D01*
X033677Y008247D01*
X033440Y008149D01*
X033259Y007968D01*
X033161Y007731D01*
X033161Y007475D01*
X033259Y007238D01*
X033440Y007057D01*
X033677Y006959D01*
X033933Y006959D01*
X034176Y007064D02*
X037151Y007064D01*
X037151Y007162D02*
X034274Y007162D01*
X034360Y007261D02*
X037151Y007261D01*
X037151Y007359D02*
X034401Y007359D01*
X034441Y007458D02*
X037151Y007458D01*
X037151Y007556D02*
X034448Y007556D01*
X034448Y007655D02*
X037151Y007655D01*
X037151Y007754D02*
X034439Y007754D01*
X034398Y007852D02*
X037151Y007852D01*
X037151Y007951D02*
X034357Y007951D01*
X034269Y008049D02*
X037151Y008049D01*
X037151Y008148D02*
X034170Y008148D01*
X034032Y008313D02*
X034115Y008356D01*
X034191Y008411D01*
X034257Y008477D01*
X034312Y008552D01*
X034354Y008635D01*
X034383Y008724D01*
X034397Y008813D01*
X033855Y008813D01*
X033855Y008913D01*
X034397Y008913D01*
X034383Y009002D01*
X034354Y009090D01*
X034312Y009174D01*
X034257Y009249D01*
X034191Y009315D01*
X034115Y009370D01*
X034032Y009412D01*
X033944Y009441D01*
X033855Y009455D01*
X033855Y008913D01*
X033755Y008913D01*
X033755Y009455D01*
X033666Y009441D01*
X033577Y009412D01*
X033494Y009370D01*
X033418Y009315D01*
X033352Y009249D01*
X033298Y009174D01*
X033255Y009090D01*
X033226Y009002D01*
X033212Y008913D01*
X033755Y008913D01*
X033755Y008813D01*
X033855Y008813D01*
X033855Y008270D01*
X033944Y008285D01*
X034032Y008313D01*
X034094Y008345D02*
X037151Y008345D01*
X037151Y008443D02*
X034224Y008443D01*
X034304Y008542D02*
X037151Y008542D01*
X037151Y008640D02*
X034356Y008640D01*
X034385Y008739D02*
X037151Y008739D01*
X037151Y008838D02*
X033855Y008838D01*
X033855Y008936D02*
X033755Y008936D01*
X033755Y008838D02*
X029355Y008838D01*
X029355Y008813D02*
X029355Y008913D01*
X029897Y008913D01*
X029883Y009002D01*
X029854Y009090D01*
X029812Y009174D01*
X029757Y009249D01*
X029691Y009315D01*
X029615Y009370D01*
X029532Y009412D01*
X029444Y009441D01*
X029355Y009455D01*
X029355Y008913D01*
X029255Y008913D01*
X029255Y009455D01*
X029166Y009441D01*
X029077Y009412D01*
X028994Y009370D01*
X028918Y009315D01*
X028852Y009249D01*
X028798Y009174D01*
X028755Y009090D01*
X028726Y009002D01*
X028712Y008913D01*
X029255Y008913D01*
X029255Y008813D01*
X029355Y008813D01*
X029897Y008813D01*
X029883Y008724D01*
X029854Y008635D01*
X029812Y008552D01*
X029757Y008477D01*
X029691Y008411D01*
X029615Y008356D01*
X029532Y008313D01*
X029444Y008285D01*
X029355Y008270D01*
X029355Y008813D01*
X029355Y008739D02*
X029255Y008739D01*
X029255Y008813D02*
X029255Y008270D01*
X029166Y008285D01*
X029077Y008313D01*
X028994Y008356D01*
X028918Y008411D01*
X028852Y008477D01*
X028798Y008552D01*
X028755Y008635D01*
X028726Y008724D01*
X028712Y008813D01*
X029255Y008813D01*
X029255Y008838D02*
X023855Y008838D01*
X023855Y008813D02*
X023855Y008913D01*
X024397Y008913D01*
X024383Y009002D01*
X024354Y009090D01*
X024312Y009174D01*
X024257Y009249D01*
X024191Y009315D01*
X024115Y009370D01*
X024032Y009412D01*
X023944Y009441D01*
X023855Y009455D01*
X023855Y008913D01*
X023755Y008913D01*
X023755Y009455D01*
X023666Y009441D01*
X023577Y009412D01*
X023494Y009370D01*
X023418Y009315D01*
X023352Y009249D01*
X023298Y009174D01*
X023255Y009090D01*
X023226Y009002D01*
X023212Y008913D01*
X023755Y008913D01*
X023755Y008813D01*
X023855Y008813D01*
X024397Y008813D01*
X024383Y008724D01*
X024354Y008635D01*
X024312Y008552D01*
X024257Y008477D01*
X024191Y008411D01*
X024115Y008356D01*
X024032Y008313D01*
X023944Y008285D01*
X023855Y008270D01*
X023855Y008813D01*
X023855Y008739D02*
X023755Y008739D01*
X023755Y008813D02*
X023755Y008270D01*
X023666Y008285D01*
X023577Y008313D01*
X023494Y008356D01*
X023418Y008411D01*
X023352Y008477D01*
X023298Y008552D01*
X023255Y008635D01*
X023226Y008724D01*
X023212Y008813D01*
X023755Y008813D01*
X023755Y008838D02*
X019355Y008838D01*
X019355Y008813D02*
X019355Y008913D01*
X019897Y008913D01*
X019883Y009002D01*
X019854Y009090D01*
X019812Y009174D01*
X019757Y009249D01*
X019691Y009315D01*
X019615Y009370D01*
X019532Y009412D01*
X019444Y009441D01*
X019355Y009455D01*
X019355Y008913D01*
X019255Y008913D01*
X019255Y009455D01*
X019166Y009441D01*
X019077Y009412D01*
X018994Y009370D01*
X018918Y009315D01*
X018852Y009249D01*
X018798Y009174D01*
X018755Y009090D01*
X018726Y009002D01*
X018712Y008913D01*
X019255Y008913D01*
X019255Y008813D01*
X019355Y008813D01*
X019897Y008813D01*
X019883Y008724D01*
X019854Y008635D01*
X019812Y008552D01*
X019757Y008477D01*
X019691Y008411D01*
X019615Y008356D01*
X019532Y008313D01*
X019444Y008285D01*
X019355Y008270D01*
X019355Y008813D01*
X019355Y008739D02*
X019255Y008739D01*
X019255Y008813D02*
X019255Y008270D01*
X019166Y008285D01*
X019077Y008313D01*
X018994Y008356D01*
X018918Y008411D01*
X018852Y008477D01*
X018798Y008552D01*
X018755Y008635D01*
X018726Y008724D01*
X018712Y008813D01*
X019255Y008813D01*
X019255Y008838D02*
X013855Y008838D01*
X013855Y008813D02*
X013855Y008913D01*
X014397Y008913D01*
X014383Y009002D01*
X014354Y009090D01*
X014312Y009174D01*
X014257Y009249D01*
X014191Y009315D01*
X014115Y009370D01*
X014032Y009412D01*
X013944Y009441D01*
X013855Y009455D01*
X013855Y008913D01*
X013755Y008913D01*
X013755Y009455D01*
X013666Y009441D01*
X013577Y009412D01*
X013494Y009370D01*
X013418Y009315D01*
X013352Y009249D01*
X013298Y009174D01*
X013255Y009090D01*
X013226Y009002D01*
X013212Y008913D01*
X013755Y008913D01*
X013755Y008813D01*
X013855Y008813D01*
X014397Y008813D01*
X014383Y008724D01*
X014354Y008635D01*
X014312Y008552D01*
X014257Y008477D01*
X014191Y008411D01*
X014115Y008356D01*
X014032Y008313D01*
X013944Y008285D01*
X013855Y008270D01*
X013855Y008813D01*
X013855Y008739D02*
X013755Y008739D01*
X013755Y008813D02*
X013755Y008270D01*
X013666Y008285D01*
X013577Y008313D01*
X013494Y008356D01*
X013418Y008411D01*
X013352Y008477D01*
X013298Y008552D01*
X013255Y008635D01*
X013226Y008724D01*
X013212Y008813D01*
X013755Y008813D01*
X013755Y008838D02*
X009355Y008838D01*
X009355Y008813D02*
X009355Y008913D01*
X009897Y008913D01*
X009883Y009002D01*
X009854Y009090D01*
X009812Y009174D01*
X009757Y009249D01*
X009691Y009315D01*
X009615Y009370D01*
X009532Y009412D01*
X009444Y009441D01*
X009355Y009455D01*
X009355Y008913D01*
X009255Y008913D01*
X009255Y009455D01*
X009166Y009441D01*
X009077Y009412D01*
X008994Y009370D01*
X008918Y009315D01*
X008852Y009249D01*
X008798Y009174D01*
X008755Y009090D01*
X008726Y009002D01*
X008712Y008913D01*
X009255Y008913D01*
X009255Y008813D01*
X009355Y008813D01*
X009897Y008813D01*
X009883Y008724D01*
X009854Y008635D01*
X009812Y008552D01*
X009757Y008477D01*
X009691Y008411D01*
X009615Y008356D01*
X009532Y008313D01*
X009444Y008285D01*
X009355Y008270D01*
X009355Y008813D01*
X009355Y008739D02*
X009255Y008739D01*
X009255Y008813D02*
X009255Y008270D01*
X009166Y008285D01*
X009077Y008313D01*
X008994Y008356D01*
X008918Y008411D01*
X008852Y008477D01*
X008798Y008552D01*
X008755Y008635D01*
X008726Y008724D01*
X008712Y008813D01*
X009255Y008813D01*
X009255Y008838D02*
X000401Y008838D01*
X000401Y008936D02*
X008716Y008936D01*
X008737Y009035D02*
X000401Y009035D01*
X000401Y009133D02*
X008777Y009133D01*
X008840Y009232D02*
X000401Y009232D01*
X000401Y009330D02*
X008939Y009330D01*
X009128Y009429D02*
X000401Y009429D01*
X000401Y009527D02*
X037151Y009527D01*
X037151Y009429D02*
X033981Y009429D01*
X033855Y009429D02*
X033755Y009429D01*
X033755Y009330D02*
X033855Y009330D01*
X033855Y009232D02*
X033755Y009232D01*
X033755Y009133D02*
X033855Y009133D01*
X033855Y009035D02*
X033755Y009035D01*
X033340Y009232D02*
X029770Y009232D01*
X029832Y009133D02*
X033277Y009133D01*
X033237Y009035D02*
X029872Y009035D01*
X029893Y008936D02*
X033216Y008936D01*
X033212Y008813D02*
X033226Y008724D01*
X033255Y008635D01*
X033298Y008552D01*
X033352Y008477D01*
X033418Y008411D01*
X033494Y008356D01*
X033577Y008313D01*
X033666Y008285D01*
X033755Y008270D01*
X033755Y008813D01*
X033212Y008813D01*
X033224Y008739D02*
X029885Y008739D01*
X029856Y008640D02*
X033254Y008640D01*
X033305Y008542D02*
X029804Y008542D01*
X029724Y008443D02*
X033386Y008443D01*
X033515Y008345D02*
X029594Y008345D01*
X029434Y008246D02*
X033676Y008246D01*
X033755Y008345D02*
X033855Y008345D01*
X033855Y008443D02*
X033755Y008443D01*
X033755Y008542D02*
X033855Y008542D01*
X033855Y008640D02*
X033755Y008640D01*
X033755Y008739D02*
X033855Y008739D01*
X034393Y008936D02*
X037151Y008936D01*
X037151Y009035D02*
X034372Y009035D01*
X034332Y009133D02*
X037151Y009133D01*
X037151Y009232D02*
X034270Y009232D01*
X034170Y009330D02*
X037151Y009330D01*
X037151Y009626D02*
X000401Y009626D01*
X000401Y009724D02*
X037151Y009724D01*
X037151Y009823D02*
X000401Y009823D01*
X000401Y009922D02*
X037151Y009922D01*
X037151Y010020D02*
X000401Y010020D01*
X000401Y010119D02*
X037151Y010119D01*
X037151Y010217D02*
X000401Y010217D01*
X000401Y010316D02*
X037151Y010316D01*
X037151Y010414D02*
X000401Y010414D01*
X000401Y010513D02*
X037151Y010513D01*
X037151Y010611D02*
X000401Y010611D01*
X000401Y008739D02*
X008724Y008739D01*
X008754Y008640D02*
X000401Y008640D01*
X000401Y008542D02*
X008805Y008542D01*
X008886Y008443D02*
X000401Y008443D01*
X000401Y008345D02*
X009015Y008345D01*
X009176Y008246D02*
X000401Y008246D01*
X000401Y008148D02*
X002828Y008148D01*
X002632Y008049D02*
X000401Y008049D01*
X000401Y007951D02*
X002507Y007951D01*
X002417Y007852D02*
X000401Y007852D01*
X000401Y007754D02*
X002348Y007754D01*
X002295Y007655D02*
X000401Y007655D01*
X000401Y007556D02*
X002257Y007556D01*
X002231Y007458D02*
X000401Y007458D01*
X000401Y007359D02*
X002215Y007359D01*
X003101Y007359D02*
X003201Y007359D01*
X003201Y007458D02*
X003101Y007458D01*
X003101Y007556D02*
X003201Y007556D01*
X003201Y007655D02*
X003101Y007655D01*
X003101Y007754D02*
X003201Y007754D01*
X003201Y007852D02*
X003101Y007852D01*
X003101Y007951D02*
X003201Y007951D01*
X003201Y008049D02*
X003101Y008049D01*
X003101Y008148D02*
X003201Y008148D01*
X003474Y008148D02*
X008939Y008148D01*
X008841Y008049D02*
X003670Y008049D01*
X003795Y007951D02*
X008752Y007951D01*
X008711Y007852D02*
X003885Y007852D01*
X003955Y007754D02*
X008670Y007754D01*
X008661Y007655D02*
X004007Y007655D01*
X004045Y007556D02*
X008661Y007556D01*
X008668Y007458D02*
X004072Y007458D01*
X004087Y007359D02*
X008709Y007359D01*
X009676Y007064D02*
X013434Y007064D01*
X013440Y007057D02*
X013677Y006959D01*
X013933Y006959D01*
X014169Y007057D01*
X014350Y007238D01*
X014448Y007475D01*
X014448Y007731D01*
X014350Y007968D01*
X014169Y008149D01*
X013933Y008247D01*
X013677Y008247D01*
X013440Y008149D01*
X013259Y007968D01*
X013161Y007731D01*
X013161Y007475D01*
X013259Y007238D01*
X013440Y007057D01*
X013335Y007162D02*
X009774Y007162D01*
X009860Y007261D02*
X013250Y007261D01*
X013209Y007359D02*
X009901Y007359D01*
X009941Y007458D02*
X013168Y007458D01*
X013161Y007556D02*
X009948Y007556D01*
X009948Y007655D02*
X013161Y007655D01*
X013170Y007754D02*
X009939Y007754D01*
X009898Y007852D02*
X013211Y007852D01*
X013252Y007951D02*
X009857Y007951D01*
X009769Y008049D02*
X013341Y008049D01*
X013439Y008148D02*
X009670Y008148D01*
X009434Y008246D02*
X013676Y008246D01*
X013755Y008345D02*
X013855Y008345D01*
X013855Y008443D02*
X013755Y008443D01*
X013755Y008542D02*
X013855Y008542D01*
X013855Y008640D02*
X013755Y008640D01*
X013305Y008542D02*
X009804Y008542D01*
X009856Y008640D02*
X013254Y008640D01*
X013224Y008739D02*
X009885Y008739D01*
X009355Y008640D02*
X009255Y008640D01*
X009255Y008542D02*
X009355Y008542D01*
X009355Y008443D02*
X009255Y008443D01*
X009255Y008345D02*
X009355Y008345D01*
X009594Y008345D02*
X013515Y008345D01*
X013386Y008443D02*
X009724Y008443D01*
X009893Y008936D02*
X013216Y008936D01*
X013237Y009035D02*
X009872Y009035D01*
X009832Y009133D02*
X013277Y009133D01*
X013340Y009232D02*
X009770Y009232D01*
X009670Y009330D02*
X013439Y009330D01*
X013628Y009429D02*
X009481Y009429D01*
X009355Y009429D02*
X009255Y009429D01*
X009255Y009330D02*
X009355Y009330D01*
X009355Y009232D02*
X009255Y009232D01*
X009255Y009133D02*
X009355Y009133D01*
X009355Y009035D02*
X009255Y009035D01*
X009255Y008936D02*
X009355Y008936D01*
X013755Y008936D02*
X013855Y008936D01*
X013855Y009035D02*
X013755Y009035D01*
X013755Y009133D02*
X013855Y009133D01*
X013855Y009232D02*
X013755Y009232D01*
X013755Y009330D02*
X013855Y009330D01*
X013855Y009429D02*
X013755Y009429D01*
X013981Y009429D02*
X019128Y009429D01*
X019255Y009429D02*
X019355Y009429D01*
X019355Y009330D02*
X019255Y009330D01*
X019255Y009232D02*
X019355Y009232D01*
X019355Y009133D02*
X019255Y009133D01*
X019255Y009035D02*
X019355Y009035D01*
X019355Y008936D02*
X019255Y008936D01*
X018777Y009133D02*
X014332Y009133D01*
X014372Y009035D02*
X018737Y009035D01*
X018716Y008936D02*
X014393Y008936D01*
X014385Y008739D02*
X018724Y008739D01*
X018754Y008640D02*
X014356Y008640D01*
X014304Y008542D02*
X018805Y008542D01*
X018886Y008443D02*
X014224Y008443D01*
X014094Y008345D02*
X019015Y008345D01*
X019176Y008246D02*
X013934Y008246D01*
X014170Y008148D02*
X018939Y008148D01*
X018940Y008149D02*
X018759Y007968D01*
X018661Y007731D01*
X018661Y007475D01*
X018759Y007238D01*
X018940Y007057D01*
X019177Y006959D01*
X019433Y006959D01*
X019669Y007057D01*
X019850Y007238D01*
X019948Y007475D01*
X019948Y007731D01*
X019850Y007968D01*
X019669Y008149D01*
X019433Y008247D01*
X019177Y008247D01*
X018940Y008149D01*
X018841Y008049D02*
X014269Y008049D01*
X014357Y007951D02*
X018752Y007951D01*
X018711Y007852D02*
X014398Y007852D01*
X014439Y007754D02*
X018670Y007754D01*
X018661Y007655D02*
X014448Y007655D01*
X014448Y007556D02*
X018661Y007556D01*
X018668Y007458D02*
X014441Y007458D01*
X014401Y007359D02*
X018709Y007359D01*
X018750Y007261D02*
X014360Y007261D01*
X014274Y007162D02*
X018835Y007162D01*
X018934Y007064D02*
X014176Y007064D01*
X013947Y006965D02*
X019162Y006965D01*
X019447Y006965D02*
X023662Y006965D01*
X023677Y006959D02*
X023933Y006959D01*
X024169Y007057D01*
X024350Y007238D01*
X024448Y007475D01*
X024448Y007731D01*
X024350Y007968D01*
X024169Y008149D01*
X023933Y008247D01*
X023677Y008247D01*
X023440Y008149D01*
X023259Y007968D01*
X023161Y007731D01*
X023161Y007475D01*
X023259Y007238D01*
X023440Y007057D01*
X023677Y006959D01*
X023434Y007064D02*
X019676Y007064D01*
X019774Y007162D02*
X023335Y007162D01*
X023250Y007261D02*
X019860Y007261D01*
X019901Y007359D02*
X023209Y007359D01*
X023168Y007458D02*
X019941Y007458D01*
X019948Y007556D02*
X023161Y007556D01*
X023161Y007655D02*
X019948Y007655D01*
X019939Y007754D02*
X023170Y007754D01*
X023211Y007852D02*
X019898Y007852D01*
X019857Y007951D02*
X023252Y007951D01*
X023341Y008049D02*
X019769Y008049D01*
X019670Y008148D02*
X023439Y008148D01*
X023676Y008246D02*
X019434Y008246D01*
X019355Y008345D02*
X019255Y008345D01*
X019255Y008443D02*
X019355Y008443D01*
X019355Y008542D02*
X019255Y008542D01*
X019255Y008640D02*
X019355Y008640D01*
X019804Y008542D02*
X023305Y008542D01*
X023254Y008640D02*
X019856Y008640D01*
X019885Y008739D02*
X023224Y008739D01*
X023755Y008640D02*
X023855Y008640D01*
X023855Y008542D02*
X023755Y008542D01*
X023755Y008443D02*
X023855Y008443D01*
X023855Y008345D02*
X023755Y008345D01*
X023934Y008246D02*
X029176Y008246D01*
X029177Y008247D02*
X028940Y008149D01*
X028759Y007968D01*
X028661Y007731D01*
X028661Y007475D01*
X028759Y007238D01*
X028940Y007057D01*
X029177Y006959D01*
X029433Y006959D01*
X029669Y007057D01*
X029850Y007238D01*
X029948Y007475D01*
X029948Y007731D01*
X029850Y007968D01*
X029669Y008149D01*
X029433Y008247D01*
X029177Y008247D01*
X029255Y008345D02*
X029355Y008345D01*
X029355Y008443D02*
X029255Y008443D01*
X029255Y008542D02*
X029355Y008542D01*
X029355Y008640D02*
X029255Y008640D01*
X028805Y008542D02*
X024304Y008542D01*
X024356Y008640D02*
X028754Y008640D01*
X028724Y008739D02*
X024385Y008739D01*
X024393Y008936D02*
X028716Y008936D01*
X028737Y009035D02*
X024372Y009035D01*
X024332Y009133D02*
X028777Y009133D01*
X028840Y009232D02*
X024270Y009232D01*
X024170Y009330D02*
X028939Y009330D01*
X029128Y009429D02*
X023981Y009429D01*
X023855Y009429D02*
X023755Y009429D01*
X023755Y009330D02*
X023855Y009330D01*
X023855Y009232D02*
X023755Y009232D01*
X023755Y009133D02*
X023855Y009133D01*
X023855Y009035D02*
X023755Y009035D01*
X023755Y008936D02*
X023855Y008936D01*
X023277Y009133D02*
X019832Y009133D01*
X019872Y009035D02*
X023237Y009035D01*
X023216Y008936D02*
X019893Y008936D01*
X019770Y009232D02*
X023340Y009232D01*
X023439Y009330D02*
X019670Y009330D01*
X019481Y009429D02*
X023628Y009429D01*
X023386Y008443D02*
X019724Y008443D01*
X019594Y008345D02*
X023515Y008345D01*
X024094Y008345D02*
X029015Y008345D01*
X028886Y008443D02*
X024224Y008443D01*
X024170Y008148D02*
X028939Y008148D01*
X028841Y008049D02*
X024269Y008049D01*
X024357Y007951D02*
X028752Y007951D01*
X028711Y007852D02*
X024398Y007852D01*
X024439Y007754D02*
X028670Y007754D01*
X028661Y007655D02*
X024448Y007655D01*
X024448Y007556D02*
X028661Y007556D01*
X028668Y007458D02*
X024441Y007458D01*
X024401Y007359D02*
X028709Y007359D01*
X028750Y007261D02*
X024360Y007261D01*
X024274Y007162D02*
X028835Y007162D01*
X028934Y007064D02*
X024176Y007064D01*
X023947Y006965D02*
X029162Y006965D01*
X029447Y006965D02*
X033662Y006965D01*
X033434Y007064D02*
X029676Y007064D01*
X029774Y007162D02*
X033335Y007162D01*
X033250Y007261D02*
X029860Y007261D01*
X029901Y007359D02*
X033209Y007359D01*
X033168Y007458D02*
X029941Y007458D01*
X029948Y007556D02*
X033161Y007556D01*
X033161Y007655D02*
X029948Y007655D01*
X029939Y007754D02*
X033170Y007754D01*
X033211Y007852D02*
X029898Y007852D01*
X029857Y007951D02*
X033252Y007951D01*
X033341Y008049D02*
X029769Y008049D01*
X029670Y008148D02*
X033439Y008148D01*
X033934Y008246D02*
X037151Y008246D01*
X033628Y009429D02*
X029481Y009429D01*
X029355Y009429D02*
X029255Y009429D01*
X029255Y009330D02*
X029355Y009330D01*
X029355Y009232D02*
X029255Y009232D01*
X029255Y009133D02*
X029355Y009133D01*
X029355Y009035D02*
X029255Y009035D01*
X029255Y008936D02*
X029355Y008936D01*
X029670Y009330D02*
X033439Y009330D01*
X037151Y006768D02*
X003950Y006768D01*
X003880Y006670D02*
X037151Y006670D01*
X037151Y006571D02*
X003788Y006571D01*
X003659Y006473D02*
X037151Y006473D01*
X037151Y006374D02*
X003454Y006374D01*
X002644Y006473D02*
X002099Y006473D01*
X002041Y006571D02*
X002514Y006571D01*
X002422Y006670D02*
X001965Y006670D01*
X001862Y006768D02*
X002352Y006768D01*
X002299Y006867D02*
X001720Y006867D01*
X001452Y006965D02*
X002259Y006965D01*
X002232Y007064D02*
X000401Y007064D01*
X000401Y007162D02*
X002216Y007162D01*
X003101Y007261D02*
X000401Y007261D01*
X000401Y006965D02*
X001071Y006965D01*
X001211Y006965D02*
X001311Y006965D01*
X001311Y006867D02*
X001211Y006867D01*
X001211Y006768D02*
X001311Y006768D01*
X001311Y006670D02*
X001211Y006670D01*
X001211Y006571D02*
X001311Y006571D01*
X001311Y006473D02*
X001211Y006473D01*
X001211Y006374D02*
X001311Y006374D01*
X001311Y006275D02*
X001211Y006275D01*
X001211Y006177D02*
X001311Y006177D01*
X000424Y006473D02*
X000401Y006473D01*
X000401Y006571D02*
X000482Y006571D01*
X000557Y006670D02*
X000401Y006670D01*
X000401Y006768D02*
X000661Y006768D01*
X000803Y006867D02*
X000401Y006867D01*
X000401Y005586D02*
X000439Y005586D01*
X000401Y005487D02*
X000502Y005487D01*
X000587Y005389D02*
X000401Y005389D01*
X000401Y005290D02*
X000698Y005290D01*
X009447Y006965D02*
X013662Y006965D01*
X014270Y009232D02*
X018840Y009232D01*
X018939Y009330D02*
X014170Y009330D01*
X046151Y006863D02*
X046151Y001363D01*
X047151Y001363D02*
X047151Y004863D01*
X048151Y004363D02*
X048151Y001363D01*
X049151Y001363D02*
X049151Y003863D01*
X060151Y005213D02*
X060151Y002363D01*
X062151Y002863D02*
X062151Y005113D01*
X060301Y005113D02*
X060151Y005213D01*
X027699Y001053D02*
X026928Y001053D01*
X026928Y000954D02*
X027699Y000954D01*
X027699Y000856D02*
X026912Y000856D01*
X026858Y000757D02*
X027699Y000757D01*
X027711Y000658D02*
X026760Y000658D01*
X025497Y000954D02*
X025467Y000954D01*
X014653Y001447D02*
X014267Y001447D01*
X014292Y001545D02*
X014653Y001545D01*
X014653Y001644D02*
X014286Y001644D01*
X014245Y001742D02*
X014558Y001742D01*
X014480Y001841D02*
X014126Y001841D01*
X014448Y001940D02*
X011735Y001940D01*
X011735Y002038D02*
X014448Y002038D01*
X014488Y002137D02*
X011695Y002137D01*
X011605Y002235D02*
X014578Y002235D01*
X013438Y001841D02*
X012745Y001841D01*
X012864Y001742D02*
X013320Y001742D01*
X013221Y001644D02*
X012962Y001644D01*
X013061Y001545D02*
X013123Y001545D01*
X011852Y001841D02*
X011735Y001841D01*
X011125Y001841D02*
X010956Y001841D01*
X011104Y001742D02*
X011125Y001742D01*
D21*
X041151Y003363D03*
X048151Y004363D03*
X049151Y003863D03*
X047151Y004863D03*
X046151Y006863D03*
X062151Y002863D03*
X060151Y002363D03*
D22*
X060870Y009831D02*
X052635Y009831D01*
X050667Y009831D01*
X042635Y009831D01*
X040667Y009831D01*
X040635Y009863D01*
X039651Y009863D01*
X060870Y009831D02*
X061151Y010113D01*
X063151Y010113D01*
M02*
