G75*
G70*
%OFA0B0*%
%FSLAX24Y24*%
%IPPOS*%
%LPD*%
%AMOC8*
5,1,8,0,0,1.08239X$1,22.5*
%
%ADD10C,0.0110*%
%ADD11C,0.0945*%
%ADD12C,0.1181*%
%ADD13C,0.1581*%
%ADD14C,0.0780*%
%ADD15OC8,0.0780*%
%ADD16C,0.0886*%
%ADD17C,0.0600*%
%ADD18C,0.0100*%
%ADD19C,0.0500*%
%ADD20C,0.0396*%
D10*
X056206Y004168D02*
X056506Y004468D01*
X056506Y004543D01*
X056431Y004618D01*
X056281Y004618D01*
X056206Y004543D01*
X056722Y004618D02*
X056722Y004168D01*
X056722Y004318D02*
X056947Y004468D01*
X057151Y004468D02*
X057302Y004618D01*
X057302Y004168D01*
X057452Y004168D02*
X057151Y004168D01*
X056947Y004168D02*
X056722Y004318D01*
X056506Y004168D02*
X056206Y004168D01*
X057667Y004168D02*
X057967Y004168D01*
X057817Y004168D02*
X057817Y004618D01*
X057667Y004468D01*
X057463Y004918D02*
X057237Y004918D01*
X057237Y005368D01*
X057463Y005368D01*
X057538Y005293D01*
X057538Y005218D01*
X057463Y005143D01*
X057237Y005143D01*
X057463Y005143D02*
X057538Y005068D01*
X057538Y004993D01*
X057463Y004918D01*
X057022Y004918D02*
X057022Y005368D01*
X056872Y005218D01*
X056722Y005368D01*
X056722Y004918D01*
X056356Y004918D02*
X056356Y005368D01*
X056206Y005368D02*
X056506Y005368D01*
D11*
X061151Y010113D03*
X063151Y010113D03*
D12*
X064001Y005113D03*
X062151Y005113D03*
X060301Y005113D03*
D13*
X003151Y004863D03*
X001261Y006044D03*
X003151Y007264D03*
D14*
X041651Y006284D02*
X041651Y005504D01*
X051651Y005504D02*
X051651Y006284D01*
D15*
X054604Y005894D03*
X053620Y004910D03*
X049683Y004910D03*
X048698Y005894D03*
X044604Y005894D03*
X043620Y004910D03*
X039683Y004910D03*
X038698Y005894D03*
X040667Y009831D03*
X042635Y009831D03*
X050667Y009831D03*
X052635Y009831D03*
D16*
X009305Y003863D03*
X013805Y003863D03*
X019305Y003863D03*
X023805Y003863D03*
X029305Y003863D03*
X033805Y003863D03*
X033805Y008863D03*
X029305Y008863D03*
X023805Y008863D03*
X019305Y008863D03*
X013805Y008863D03*
X009305Y008863D03*
D17*
X037151Y001663D02*
X037151Y001063D01*
X038151Y001063D02*
X038151Y001663D01*
X039151Y001663D02*
X039151Y001063D01*
X040151Y001063D02*
X040151Y001663D01*
X041151Y001663D02*
X041151Y001063D01*
X042151Y001063D02*
X042151Y001663D01*
X043151Y001663D02*
X043151Y001063D01*
X044151Y001063D02*
X044151Y001663D01*
X045151Y001663D02*
X045151Y001063D01*
X046151Y001063D02*
X046151Y001663D01*
X047151Y001663D02*
X047151Y001063D01*
X048151Y001063D02*
X048151Y001663D01*
X049151Y001663D02*
X049151Y001063D01*
D18*
X045651Y002363D02*
X045151Y001863D01*
X045151Y001363D01*
X044151Y001363D02*
X044151Y002363D01*
X044651Y002863D01*
X062151Y002863D01*
X063651Y003363D02*
X064151Y003863D01*
X064151Y005213D01*
X064001Y005113D01*
X063651Y003363D02*
X043651Y003363D01*
X043151Y002863D01*
X043151Y001363D01*
X042151Y001363D02*
X042151Y002363D01*
X041651Y002863D01*
X040651Y002863D01*
X040151Y003363D01*
X035151Y003363D01*
X034651Y002863D01*
X032651Y002863D01*
X031651Y003863D01*
X029305Y003863D01*
X033805Y003863D02*
X040651Y003863D01*
X041151Y003363D01*
X042151Y003863D02*
X049151Y003863D01*
X048151Y004363D02*
X044151Y004363D01*
X043620Y004894D01*
X043620Y004910D01*
X042151Y003863D02*
X041104Y004910D01*
X039683Y004910D01*
X047151Y004863D02*
X049635Y004863D01*
X049683Y004910D01*
X051151Y004863D02*
X053572Y004863D01*
X053620Y004910D01*
X051151Y004863D02*
X049151Y006863D01*
X046151Y006863D01*
X045651Y002363D02*
X060151Y002363D01*
X038151Y002113D02*
X038151Y001363D01*
X037151Y001363D02*
X036651Y000863D01*
X022305Y000863D01*
X019305Y003863D01*
X020151Y004863D02*
X023651Y001363D01*
X035651Y001363D01*
X036651Y002363D01*
X037901Y002363D01*
X038151Y002113D01*
X020151Y004863D02*
X011651Y004863D01*
X010651Y003863D01*
X009305Y003863D01*
D19*
X004151Y005863D02*
X003151Y004863D01*
X004151Y005863D02*
X024651Y005863D01*
X025651Y004863D01*
X025651Y002863D01*
X026151Y002363D01*
X035151Y002363D01*
X035651Y002863D01*
X039651Y002863D01*
X040151Y002363D01*
X040151Y001363D01*
D20*
X041151Y003363D03*
X048151Y004363D03*
X049151Y003863D03*
X047151Y004863D03*
X046151Y006863D03*
X062151Y002863D03*
X060151Y002363D03*
M02*
