%
M48
M72
T01C0.0236
T02C0.0400
T03C0.0520
T04C0.0591
T05C0.0630
T06C0.0787
T07C0.0945
T08C0.1181
%
T01
X41151Y3363
X48151Y4363
X49151Y3863
X47151Y4863
X46151Y6863
X62151Y2863
X60151Y2363
T02
X49151Y1363
X48151Y1363
X47151Y1363
X46151Y1363
X45151Y1363
X44151Y1363
X43151Y1363
X42151Y1363
X41151Y1363
X40151Y1363
X39151Y1363
X38151Y1363
X37151Y1363
T03
X39683Y4910
X43620Y4910
X44604Y5894
X41651Y5894
X38698Y5894
X48698Y5894
X51651Y5894
X54604Y5894
X53620Y4910
X49683Y4910
X50667Y9831
X52635Y9831
X42635Y9831
X40667Y9831
T04
X9305Y3863
X13805Y3863
X19305Y3863
X23805Y3863
X29305Y3863
X33805Y3863
X33805Y8863
X29305Y8863
X23805Y8863
X19305Y8863
X13805Y8863
X9305Y8863
T05
X61151Y10113
X63151Y10113
T06
X64001Y5113
X62151Y5113
X60301Y5113
X33805Y7603
X29305Y7603
X23805Y7603
X19305Y7603
X13805Y7603
X9305Y7603
T07
X38698Y7863
X44604Y7863
X48698Y7863
X54604Y7863
T08
X3151Y7264
X1261Y6044
X3151Y4863
M30
