G75*
G70*
%OFA0B0*%
%FSLAX24Y24*%
%IPPOS*%
%LPD*%
%AMOC8*
5,1,8,0,0,1.08239X$1,22.5*
%
%ADD10C,0.0180*%
%ADD11C,0.0080*%
%ADD12C,0.0120*%
%ADD13C,0.0110*%
%ADD14C,0.0100*%
%ADD15C,0.0090*%
%ADD16C,0.0060*%
%ADD17C,0.0050*%
D10*
X050741Y000953D02*
X051015Y001226D01*
X051288Y000953D01*
X051288Y001774D01*
X051662Y001774D02*
X052209Y001774D01*
X051935Y001774D02*
X051935Y000953D01*
X052583Y000953D02*
X052583Y001774D01*
X052993Y001774D01*
X053130Y001637D01*
X053130Y001363D01*
X052993Y001226D01*
X052583Y001226D01*
X053503Y001363D02*
X054051Y001363D01*
X054051Y001500D02*
X054051Y000953D01*
X054424Y000953D02*
X054971Y001500D01*
X054971Y001637D01*
X054834Y001774D01*
X054561Y001774D01*
X054424Y001637D01*
X054051Y001500D02*
X053777Y001774D01*
X053503Y001500D01*
X053503Y000953D01*
X054424Y000953D02*
X054971Y000953D01*
X056266Y001090D02*
X056402Y000953D01*
X056539Y000953D01*
X056676Y001090D01*
X056676Y001774D01*
X056539Y001774D02*
X056813Y001774D01*
X057323Y001500D02*
X057597Y001500D01*
X057734Y001363D01*
X057734Y000953D01*
X057323Y000953D01*
X057186Y001090D01*
X057323Y001226D01*
X057734Y001226D01*
X058107Y001090D02*
X058244Y000953D01*
X058654Y000953D01*
X059028Y000953D02*
X059028Y001774D01*
X058654Y001500D02*
X058244Y001500D01*
X058107Y001363D01*
X058107Y001090D01*
X059028Y001226D02*
X059438Y001500D01*
X059795Y001363D02*
X059932Y001500D01*
X060342Y001500D01*
X059932Y001226D02*
X059795Y001363D01*
X059932Y001226D02*
X060206Y001226D01*
X060342Y001090D01*
X060206Y000953D01*
X059795Y000953D01*
X059438Y000953D02*
X059028Y001226D01*
X050741Y000953D02*
X050741Y001774D01*
D11*
X053208Y002296D02*
X053315Y002403D01*
X053261Y002403D01*
X053261Y002456D01*
X053315Y002456D01*
X053315Y002403D01*
X053053Y002403D02*
X053053Y002563D01*
X053000Y002616D01*
X052946Y002563D01*
X052946Y002403D01*
X052840Y002403D02*
X052840Y002616D01*
X052893Y002616D01*
X052946Y002563D01*
X052685Y002563D02*
X052685Y002456D01*
X052631Y002403D01*
X052525Y002403D01*
X052471Y002456D01*
X052471Y002563D01*
X052525Y002616D01*
X052631Y002616D01*
X052685Y002563D01*
X052316Y002723D02*
X052103Y002723D01*
X052210Y002723D02*
X052210Y002403D01*
X051588Y002616D02*
X051535Y002616D01*
X051428Y002510D01*
X051428Y002616D02*
X051428Y002403D01*
X051273Y002456D02*
X051273Y002563D01*
X051220Y002616D01*
X051113Y002616D01*
X051059Y002563D01*
X051059Y002456D01*
X051113Y002403D01*
X051220Y002403D01*
X051273Y002456D01*
X050798Y002563D02*
X050691Y002563D01*
X050691Y002403D02*
X050691Y002723D01*
X050905Y002723D01*
X053822Y002723D02*
X053822Y002403D01*
X053982Y002403D01*
X054035Y002456D01*
X054035Y002670D01*
X053982Y002723D01*
X053822Y002723D01*
X054190Y002616D02*
X054243Y002616D01*
X054243Y002403D01*
X054190Y002403D02*
X054297Y002403D01*
X054436Y002456D02*
X054489Y002403D01*
X054649Y002403D01*
X054804Y002403D02*
X054804Y002723D01*
X054649Y002616D02*
X054489Y002616D01*
X054436Y002563D01*
X054436Y002456D01*
X054804Y002510D02*
X054964Y002616D01*
X054804Y002510D02*
X054964Y002403D01*
X055111Y002296D02*
X055217Y002403D01*
X055164Y002403D01*
X055164Y002456D01*
X055217Y002456D01*
X055217Y002403D01*
X055725Y002456D02*
X055778Y002510D01*
X055938Y002510D01*
X055938Y002563D02*
X055938Y002403D01*
X055778Y002403D01*
X055725Y002456D01*
X055778Y002616D02*
X055885Y002616D01*
X055938Y002563D01*
X056093Y002616D02*
X056253Y002616D01*
X056306Y002563D01*
X056306Y002403D01*
X056461Y002456D02*
X056461Y002563D01*
X056515Y002616D01*
X056675Y002616D01*
X056675Y002723D02*
X056675Y002403D01*
X056515Y002403D01*
X056461Y002456D01*
X056093Y002403D02*
X056093Y002616D01*
X057198Y002563D02*
X057411Y002563D01*
X057411Y002723D02*
X057411Y002403D01*
X057566Y002456D02*
X057619Y002510D01*
X057780Y002510D01*
X057780Y002563D02*
X057780Y002403D01*
X057619Y002403D01*
X057566Y002456D01*
X057619Y002616D02*
X057726Y002616D01*
X057780Y002563D01*
X057934Y002616D02*
X058095Y002616D01*
X058148Y002563D01*
X058148Y002403D01*
X058303Y002403D02*
X058303Y002723D01*
X058463Y002616D02*
X058303Y002510D01*
X058463Y002403D01*
X058610Y002403D02*
X058610Y002456D01*
X058663Y002456D01*
X058663Y002403D01*
X058610Y002403D01*
X058610Y002563D02*
X058610Y002616D01*
X058663Y002616D01*
X058663Y002563D01*
X058610Y002563D01*
X057934Y002616D02*
X057934Y002403D01*
X057198Y002403D02*
X057198Y002723D01*
X054243Y002776D02*
X054243Y002723D01*
D12*
X059651Y006113D02*
X064651Y006113D01*
X064651Y010113D01*
X064151Y010113D01*
X062651Y009113D02*
X062151Y009613D01*
X061651Y009113D01*
X062151Y009613D02*
X062151Y008113D01*
X060151Y010113D02*
X059651Y010113D01*
X059651Y006113D01*
X027867Y008051D02*
X027867Y008478D01*
X027760Y008750D02*
X027760Y008964D01*
X027760Y008857D02*
X027120Y008857D01*
X027120Y008750D02*
X027120Y008964D01*
X027120Y009217D02*
X027760Y009644D01*
X027120Y009644D01*
X027120Y009217D02*
X027760Y009217D01*
X027547Y007778D02*
X027120Y007778D01*
X027547Y007778D02*
X027760Y007564D01*
X027547Y007351D01*
X027120Y007351D01*
X027227Y007078D02*
X027120Y006971D01*
X027120Y006758D01*
X027227Y006651D01*
X027654Y006651D01*
X027760Y006758D01*
X027760Y006971D01*
X027654Y007078D01*
X017867Y007417D02*
X017867Y007844D01*
X017654Y008116D02*
X017227Y008116D01*
X017120Y008223D01*
X017120Y008437D01*
X017227Y008544D01*
X017654Y008544D01*
X017760Y008437D01*
X017760Y008223D01*
X017654Y008116D01*
X017654Y008816D02*
X017120Y008816D01*
X017654Y008816D02*
X017760Y008923D01*
X017760Y009136D01*
X017654Y009243D01*
X017120Y009243D01*
X017120Y009516D02*
X017120Y009943D01*
X017120Y009730D02*
X017760Y009730D01*
X007867Y008844D02*
X007867Y008417D01*
X007654Y008144D02*
X007227Y008144D01*
X007120Y008037D01*
X007120Y007824D01*
X007227Y007717D01*
X007654Y007717D01*
X007760Y007824D01*
X007760Y008037D01*
X007654Y008144D01*
X007760Y007464D02*
X007760Y007250D01*
X007760Y007357D02*
X007120Y007357D01*
X007120Y007250D02*
X007120Y007464D01*
X007227Y006978D02*
X007120Y006871D01*
X007120Y006551D01*
X007760Y006551D01*
X007760Y006871D01*
X007654Y006978D01*
X007227Y006978D01*
X007120Y006278D02*
X007654Y006278D01*
X007760Y006171D01*
X007760Y005958D01*
X007654Y005851D01*
X007120Y005851D01*
X007333Y005578D02*
X007760Y005578D01*
X007440Y005578D02*
X007440Y005151D01*
X007333Y005151D02*
X007120Y005365D01*
X007333Y005578D01*
X007333Y005151D02*
X007760Y005151D01*
X017120Y005278D02*
X017654Y005278D01*
X017760Y005171D01*
X017760Y004958D01*
X017654Y004851D01*
X017120Y004851D01*
X017333Y004578D02*
X017760Y004578D01*
X017440Y004578D02*
X017440Y004151D01*
X017333Y004151D02*
X017120Y004365D01*
X017333Y004578D01*
X017333Y004151D02*
X017760Y004151D01*
X017760Y005551D02*
X017120Y005551D01*
X017120Y005871D01*
X017227Y005978D01*
X017654Y005978D01*
X017760Y005871D01*
X017760Y005551D01*
X017760Y006250D02*
X017760Y006464D01*
X017760Y006357D02*
X017120Y006357D01*
X017120Y006250D02*
X017120Y006464D01*
X017227Y006717D02*
X017654Y006717D01*
X017760Y006824D01*
X017760Y007037D01*
X017654Y007144D01*
X017227Y007144D01*
X017120Y007037D01*
X017120Y006824D01*
X017227Y006717D01*
X007760Y009116D02*
X007760Y009330D01*
X007760Y009223D02*
X007120Y009223D01*
X007120Y009116D02*
X007120Y009330D01*
X007120Y009583D02*
X007760Y010010D01*
X007120Y010010D01*
X007120Y009583D02*
X007760Y009583D01*
D13*
X036706Y009344D02*
X036706Y009540D01*
X036706Y009442D02*
X037296Y009442D01*
X037296Y009344D02*
X037296Y009540D01*
X037296Y009773D02*
X036706Y009773D01*
X037296Y010167D01*
X036706Y010167D01*
X037395Y009093D02*
X037395Y008699D01*
X037296Y008466D02*
X037296Y008269D01*
X037296Y008368D02*
X036706Y008368D01*
X036706Y008466D02*
X036706Y008269D01*
X036804Y008018D02*
X036706Y007920D01*
X036706Y007625D01*
X037296Y007625D01*
X037296Y007920D01*
X037198Y008018D01*
X036804Y008018D01*
X036706Y007392D02*
X036706Y007195D01*
X036706Y007293D02*
X037296Y007293D01*
X037296Y007195D02*
X037296Y007392D01*
X037296Y006944D02*
X036706Y006944D01*
X036903Y006747D01*
X036706Y006551D01*
X037296Y006551D01*
X046706Y006532D02*
X046706Y006336D01*
X046706Y006434D02*
X047296Y006434D01*
X047296Y006336D02*
X047296Y006532D01*
X047296Y006765D02*
X046706Y006765D01*
X046706Y007061D01*
X046804Y007159D01*
X047198Y007159D01*
X047296Y007061D01*
X047296Y006765D01*
X047296Y006085D02*
X046706Y006085D01*
X046903Y005888D01*
X046706Y005691D01*
X047296Y005691D01*
X047296Y007410D02*
X047296Y007607D01*
X047296Y007508D02*
X046706Y007508D01*
X046706Y007410D02*
X046706Y007607D01*
X047395Y007840D02*
X047395Y008233D01*
X047198Y008484D02*
X046804Y008484D01*
X046706Y008582D01*
X046706Y008779D01*
X046804Y008878D01*
X047198Y008878D01*
X047296Y008779D01*
X047296Y008582D01*
X047198Y008484D01*
X047198Y009129D02*
X046706Y009129D01*
X047198Y009129D02*
X047296Y009227D01*
X047296Y009424D01*
X047198Y009522D01*
X046706Y009522D01*
X046706Y009773D02*
X046706Y010167D01*
X046706Y009970D02*
X047296Y009970D01*
X058506Y010035D02*
X059096Y010035D01*
X059096Y010429D01*
X059096Y009784D02*
X059096Y009390D01*
X058506Y009390D01*
X058506Y009784D01*
X058801Y009587D02*
X058801Y009390D01*
X058899Y009140D02*
X058998Y009140D01*
X059096Y009041D01*
X059096Y008844D01*
X058998Y008746D01*
X058801Y008844D02*
X058801Y009041D01*
X058899Y009140D01*
X058604Y009140D02*
X058506Y009041D01*
X058506Y008844D01*
X058604Y008746D01*
X058703Y008746D01*
X058801Y008844D01*
X059195Y008495D02*
X059195Y008101D01*
X059096Y007851D02*
X058801Y007555D01*
X058899Y007457D02*
X058506Y007851D01*
X058506Y007457D02*
X059096Y007457D01*
X059096Y007206D02*
X059096Y006812D01*
X058506Y006812D01*
X058604Y006561D02*
X058506Y006463D01*
X058506Y006266D01*
X058604Y006168D01*
X058998Y006168D01*
X059096Y006266D01*
X059096Y006463D01*
X058998Y006561D01*
X041297Y002597D02*
X041205Y002688D01*
X041022Y002688D01*
X040930Y002597D01*
X040689Y002505D02*
X040689Y002138D01*
X040930Y002138D02*
X041297Y002505D01*
X041297Y002597D01*
X040689Y002505D02*
X040506Y002688D01*
X040322Y002505D01*
X040322Y002138D01*
X040082Y002413D02*
X039990Y002321D01*
X039715Y002321D01*
X039715Y002138D02*
X039715Y002688D01*
X039990Y002688D01*
X040082Y002597D01*
X040082Y002413D01*
X040322Y002413D02*
X040689Y002413D01*
X040930Y002138D02*
X041297Y002138D01*
X039291Y002138D02*
X039291Y002688D01*
X039474Y002688D02*
X039107Y002688D01*
X038866Y002688D02*
X038866Y002138D01*
X038683Y002321D01*
X038499Y002138D01*
X038499Y002688D01*
X037651Y002597D02*
X037559Y002688D01*
X037376Y002688D01*
X037284Y002597D01*
X037284Y002230D01*
X037376Y002138D01*
X037559Y002138D01*
X037651Y002230D01*
X037651Y002597D01*
X037043Y002688D02*
X036676Y002688D01*
X036860Y002688D02*
X036860Y002138D01*
X037892Y002046D02*
X038259Y002046D01*
D14*
X014691Y000949D02*
X008470Y000949D01*
X008470Y010536D01*
X009986Y010536D01*
X009986Y011092D01*
X009986Y011486D02*
X009986Y012042D01*
X009986Y012436D02*
X009986Y012992D01*
X009986Y013385D02*
X009986Y013942D01*
X010380Y013942D01*
X010773Y013942D02*
X011167Y013942D01*
X011561Y013942D02*
X011954Y013942D01*
X012348Y013942D02*
X012742Y013942D01*
X013135Y013942D02*
X013529Y013942D01*
X013923Y013942D02*
X014317Y013942D01*
X014317Y013385D01*
X014317Y012992D02*
X014317Y012436D01*
X014317Y012042D02*
X014317Y011486D01*
X014317Y011092D02*
X014317Y010536D01*
X009986Y010536D01*
X014317Y010536D02*
X014691Y010536D01*
X014691Y000949D01*
X018470Y000949D02*
X024691Y000949D01*
X024691Y010536D01*
X024317Y010536D01*
X024317Y011092D01*
X024317Y011486D02*
X024317Y012042D01*
X024317Y012436D02*
X024317Y012992D01*
X024317Y013385D02*
X024317Y013942D01*
X023923Y013942D01*
X023529Y013942D02*
X023135Y013942D01*
X022742Y013942D02*
X022348Y013942D01*
X021954Y013942D02*
X021561Y013942D01*
X021167Y013942D02*
X020773Y013942D01*
X020380Y013942D02*
X019986Y013942D01*
X019986Y013385D01*
X019986Y012992D02*
X019986Y012436D01*
X019986Y012042D02*
X019986Y011486D01*
X019986Y011092D02*
X019986Y010536D01*
X018470Y010536D01*
X018470Y000949D01*
X028470Y000949D02*
X034691Y000949D01*
X034691Y010536D01*
X034317Y010536D01*
X034317Y011092D01*
X034317Y011486D02*
X034317Y012042D01*
X034317Y012436D02*
X034317Y012992D01*
X034317Y013385D02*
X034317Y013942D01*
X033923Y013942D01*
X033529Y013942D02*
X033135Y013942D01*
X032742Y013942D02*
X032348Y013942D01*
X031954Y013942D02*
X031561Y013942D01*
X031167Y013942D02*
X030773Y013942D01*
X030380Y013942D02*
X029986Y013942D01*
X029986Y013385D01*
X029986Y012992D02*
X029986Y012436D01*
X029986Y012042D02*
X029986Y011486D01*
X029986Y011092D02*
X029986Y010536D01*
X028470Y010536D01*
X028470Y000949D01*
X005317Y004272D02*
X005120Y004075D01*
X003939Y004075D01*
X005317Y004272D02*
X005317Y010453D01*
X000986Y010453D01*
X000986Y007225D01*
X000986Y004863D02*
X000986Y004272D01*
X001183Y004075D01*
X001970Y004075D01*
X001183Y009981D02*
X004726Y009981D01*
X019986Y010536D02*
X024317Y010536D01*
X029986Y010536D02*
X034317Y010536D01*
D15*
X005151Y003725D02*
X005151Y003568D01*
X005072Y003490D01*
X004837Y003490D01*
X004994Y003490D02*
X005151Y003333D01*
X004837Y003333D02*
X004837Y003803D01*
X005072Y003803D01*
X005151Y003725D01*
X004635Y003803D02*
X004321Y003803D01*
X004321Y003333D01*
X004635Y003333D01*
X004119Y003333D02*
X003963Y003490D01*
X003806Y003333D01*
X003806Y003803D01*
X003604Y003725D02*
X003525Y003803D01*
X003369Y003803D01*
X003290Y003725D01*
X003290Y003411D01*
X003369Y003333D01*
X003525Y003333D01*
X003604Y003411D01*
X003604Y003725D01*
X003088Y003725D02*
X003088Y003568D01*
X003010Y003490D01*
X002775Y003490D01*
X002775Y003333D02*
X002775Y003803D01*
X003010Y003803D01*
X003088Y003725D01*
X002057Y003725D02*
X001979Y003803D01*
X001822Y003803D01*
X001743Y003725D01*
X001743Y003411D01*
X001822Y003333D01*
X001979Y003333D01*
X002057Y003411D01*
X002259Y003255D02*
X002573Y003255D01*
X001541Y003411D02*
X001541Y003725D01*
X001463Y003803D01*
X001228Y003803D01*
X001228Y003333D01*
X001463Y003333D01*
X001541Y003411D01*
X004119Y003333D02*
X004119Y003803D01*
X004321Y003568D02*
X004478Y003568D01*
D16*
X036651Y001613D02*
X036651Y001113D01*
X036901Y000863D01*
X037401Y000863D01*
X037651Y001113D01*
X037901Y000863D01*
X038401Y000863D01*
X038651Y001113D01*
X038651Y001613D01*
X038401Y001863D01*
X037901Y001863D01*
X037651Y001613D01*
X037651Y001113D01*
X038651Y001113D02*
X038901Y000863D01*
X039401Y000863D01*
X039651Y001113D01*
X039901Y000863D01*
X040401Y000863D01*
X040651Y001113D01*
X040901Y000863D01*
X041401Y000863D01*
X041651Y001113D01*
X041651Y001613D01*
X041401Y001863D01*
X040901Y001863D01*
X040651Y001613D01*
X040651Y001113D01*
X041651Y001113D02*
X041901Y000863D01*
X042401Y000863D01*
X042651Y001113D01*
X042901Y000863D01*
X043401Y000863D01*
X043651Y001113D01*
X043901Y000863D01*
X044401Y000863D01*
X044651Y001113D01*
X044651Y001613D01*
X044401Y001863D01*
X043901Y001863D01*
X043651Y001613D01*
X043651Y001113D01*
X042651Y001113D02*
X042651Y001613D01*
X042901Y001863D01*
X043401Y001863D01*
X043651Y001613D01*
X042651Y001613D02*
X042401Y001863D01*
X041901Y001863D01*
X041651Y001613D01*
X040651Y001613D02*
X040401Y001863D01*
X039901Y001863D01*
X039651Y001613D01*
X039651Y001113D01*
X039651Y001613D02*
X039401Y001863D01*
X038901Y001863D01*
X038651Y001613D01*
X037651Y001613D02*
X037401Y001863D01*
X036901Y001863D01*
X036651Y001613D01*
X044651Y001613D02*
X044901Y001863D01*
X045401Y001863D01*
X045651Y001613D01*
X045901Y001863D01*
X046401Y001863D01*
X046651Y001613D01*
X046901Y001863D01*
X047401Y001863D01*
X047651Y001613D01*
X047651Y001113D01*
X047401Y000863D01*
X046901Y000863D01*
X046651Y001113D01*
X046401Y000863D01*
X045901Y000863D01*
X045651Y001113D01*
X045401Y000863D01*
X044901Y000863D01*
X044651Y001113D01*
X045651Y001113D02*
X045651Y001613D01*
X046651Y001613D02*
X046651Y001113D01*
X047651Y001113D02*
X047901Y000863D01*
X048401Y000863D01*
X048651Y001113D01*
X048901Y000863D01*
X049401Y000863D01*
X049651Y001113D01*
X049651Y001613D01*
X049401Y001863D01*
X048901Y001863D01*
X048651Y001613D01*
X048651Y001113D01*
X048651Y001613D02*
X048401Y001863D01*
X047901Y001863D01*
X047651Y001613D01*
X050901Y004463D02*
X050901Y005063D01*
X050901Y005363D01*
X050401Y005363D01*
X050401Y006113D01*
X050901Y006113D01*
X050901Y006863D01*
X052401Y006863D01*
X052401Y006063D01*
X052901Y006063D01*
X052901Y005313D01*
X052401Y005313D01*
X052401Y005063D01*
X051901Y005063D01*
X051901Y004463D01*
X051401Y004463D01*
X051401Y005063D01*
X050901Y005063D01*
X050901Y005363D02*
X050901Y006113D01*
X052401Y006063D02*
X052401Y005313D01*
X052401Y005063D02*
X052401Y004463D01*
X051901Y004463D01*
X051401Y004463D02*
X050901Y004463D01*
X048201Y005363D02*
X047801Y006863D01*
X048651Y006863D01*
X048651Y007313D01*
X048651Y006863D02*
X050901Y006863D01*
X052401Y006863D02*
X054651Y006863D01*
X054651Y007313D01*
X054651Y006863D02*
X055501Y006863D01*
X055101Y005313D01*
X055501Y006863D02*
X055501Y008713D01*
X054651Y008713D01*
X054651Y008413D01*
X054651Y008713D02*
X054651Y010113D01*
X055851Y010113D01*
X055851Y010363D01*
X055401Y010363D01*
X055401Y010563D01*
X055851Y010563D01*
X055851Y010863D01*
X047801Y010863D01*
X047801Y010563D01*
X047451Y010563D01*
X047451Y010363D01*
X047801Y010363D01*
X047801Y010113D01*
X048651Y010113D01*
X050201Y010113D01*
X051101Y010113D02*
X052201Y010113D01*
X053101Y010113D02*
X054601Y010113D01*
X048651Y010113D02*
X048651Y008713D01*
X048651Y008413D01*
X048651Y008713D02*
X047801Y008713D01*
X047801Y006863D01*
X045501Y006863D02*
X044651Y006863D01*
X044651Y007313D01*
X044651Y006863D02*
X042401Y006863D01*
X042401Y006063D01*
X042901Y006063D01*
X042901Y005313D01*
X042401Y005313D01*
X042401Y005063D01*
X041901Y005063D01*
X041901Y004463D01*
X041401Y004463D01*
X041401Y005063D01*
X040901Y005063D01*
X040901Y005363D01*
X040401Y005363D01*
X040401Y006113D01*
X040901Y006113D01*
X040901Y006863D01*
X042401Y006863D01*
X040901Y006863D02*
X038651Y006863D01*
X038651Y007313D01*
X038651Y006863D02*
X037801Y006863D01*
X037801Y008713D01*
X038651Y008713D01*
X038651Y008413D01*
X038651Y008713D02*
X038651Y010113D01*
X040201Y010113D01*
X041101Y010113D02*
X042201Y010113D01*
X043101Y010113D02*
X044601Y010113D01*
X044651Y010113D02*
X044651Y008713D01*
X044651Y008413D01*
X044651Y008713D02*
X045501Y008713D01*
X045501Y006863D01*
X045101Y005313D01*
X042401Y005313D02*
X042401Y006063D01*
X040901Y006113D02*
X040901Y005363D01*
X040901Y005063D02*
X040901Y004463D01*
X041401Y004463D01*
X041901Y004463D02*
X042401Y004463D01*
X042401Y005063D01*
X038201Y005363D02*
X037801Y006863D01*
X037801Y010113D02*
X038651Y010113D01*
X037801Y010113D02*
X037801Y010363D01*
X037451Y010363D01*
X037451Y010563D01*
X037801Y010563D01*
X037801Y010863D01*
X045851Y010863D01*
X045851Y010563D01*
X045401Y010563D01*
X045401Y010363D01*
X045851Y010363D01*
X045851Y010113D01*
X044651Y010113D01*
D17*
X043891Y006738D02*
X043966Y006663D01*
X043966Y006588D01*
X043891Y006513D01*
X043966Y006438D01*
X043966Y006363D01*
X043891Y006288D01*
X043741Y006288D01*
X043666Y006363D01*
X043816Y006513D02*
X043891Y006513D01*
X043891Y006738D02*
X043741Y006738D01*
X043666Y006663D01*
X042166Y006663D02*
X042166Y006588D01*
X041866Y006288D01*
X042166Y006288D01*
X042166Y006663D02*
X042091Y006738D01*
X041941Y006738D01*
X041866Y006663D01*
X039516Y006288D02*
X039216Y006288D01*
X039366Y006288D02*
X039366Y006738D01*
X039216Y006588D01*
X038591Y005088D02*
X038366Y004863D01*
X038666Y004863D01*
X038591Y004638D02*
X038591Y005088D01*
X044466Y005088D02*
X044466Y004863D01*
X044616Y004938D01*
X044691Y004938D01*
X044766Y004863D01*
X044766Y004713D01*
X044691Y004638D01*
X044541Y004638D01*
X044466Y004713D01*
X044466Y005088D02*
X044766Y005088D01*
X048366Y004863D02*
X048666Y004863D01*
X048591Y005088D02*
X048366Y004863D01*
X048591Y004638D02*
X048591Y005088D01*
X049216Y006288D02*
X049516Y006288D01*
X049366Y006288D02*
X049366Y006738D01*
X049216Y006588D01*
X051866Y006663D02*
X051941Y006738D01*
X052091Y006738D01*
X052166Y006663D01*
X052166Y006588D01*
X051866Y006288D01*
X052166Y006288D01*
X053666Y006363D02*
X053741Y006288D01*
X053891Y006288D01*
X053966Y006363D01*
X053966Y006438D01*
X053891Y006513D01*
X053816Y006513D01*
X053891Y006513D02*
X053966Y006588D01*
X053966Y006663D01*
X053891Y006738D01*
X053741Y006738D01*
X053666Y006663D01*
X054466Y005088D02*
X054466Y004863D01*
X054616Y004938D01*
X054691Y004938D01*
X054766Y004863D01*
X054766Y004713D01*
X054691Y004638D01*
X054541Y004638D01*
X054466Y004713D01*
X054466Y005088D02*
X054766Y005088D01*
M02*
