%
M48
M72
T01C0.0236
T02C0.0315
T03C0.0320
T04C0.0394
T05C0.0400
T06C0.0440
T07C0.0866
T08C0.1300
T09C0.1378
%
T01
X16601Y5101
X16601Y7101
X19601Y7101
X19601Y5101
X30601Y11601
X31601Y12601
X31101Y13601
X29601Y14101
X28101Y16101
X27601Y16601
X27101Y17601
X26601Y18601
X26101Y19601
X25601Y19101
X25101Y20601
X24601Y22101
X23601Y22601
X24101Y23101
X22601Y24101
X23601Y26601
X23101Y27101
X23601Y28101
X20601Y27601
X17101Y28101
X17601Y30601
X16101Y31101
X16601Y32601
X15601Y35101
X16101Y35601
X17101Y36101
X16601Y37101
X15601Y39101
X13601Y38101
X13601Y35101
X11601Y34601
X8101Y34101
X7601Y33601
X8101Y32601
X8101Y29101
X7601Y27351
X11601Y29101
X16601Y24101
X16101Y23101
X15601Y21601
X17601Y20101
X17101Y19601
X16601Y19101
X18101Y17101
X21101Y19101
X21601Y19601
X22101Y20101
X22601Y15601
X23601Y14601
X23101Y13601
X22101Y13601
X21601Y13101
X21101Y12601
X16101Y13851
X6101Y12351
X4601Y17101
X3101Y19101
X1851Y18101
X3851Y19851
X3101Y21601
X1851Y24351
X8101Y37351
X17101Y41101
X16101Y44601
X16601Y45101
X17601Y45601
X17101Y46101
X20601Y48101
X26601Y44101
X27101Y43601
X27601Y44601
X28601Y42601
X29101Y42101
X28101Y41601
X25101Y42601
X24601Y41101
X23601Y41101
X22601Y40601
X23101Y39601
X25101Y39101
X25601Y38101
X22601Y37101
X24101Y36101
X26101Y35101
X26601Y34101
X23601Y33601
X23101Y33101
X22601Y32601
X24101Y32101
X27101Y29601
X26601Y29101
X28101Y29101
X29101Y30101
X30601Y31101
X30601Y28101
X27601Y27601
X27101Y26101
X27601Y25101
X31101Y24601
X31601Y25601
X36101Y28101
X35601Y30101
X36601Y32601
X37601Y36101
X38601Y37101
X37601Y37601
X38101Y41101
X36601Y41601
X38101Y43601
X39101Y44601
X39601Y46101
X41101Y48101
X41601Y48351
X40601Y49101
X37601Y48351
X36101Y47351
X35101Y47101
X32851Y46601
X32601Y45851
X32351Y45101
X30601Y45601
X30101Y47601
X31101Y48351
X33101Y43101
X29601Y37601
X43101Y41601
X43601Y42601
X44101Y43601
X44601Y44601
X45101Y45101
X45101Y46101
X48601Y40601
X46351Y39601
X45101Y38101
X47601Y36601
X48101Y37101
X48601Y37601
X46601Y36101
X46101Y35101
X45601Y34101
X44101Y34601
X44101Y35601
X44601Y32601
X45101Y32101
X42101Y29101
X43101Y28101
X42601Y27601
X44601Y27101
X45101Y26601
X48101Y27101
X48601Y23101
X42101Y20601
X44101Y16601
X47601Y16601
X48601Y16601
X55101Y10601
X60101Y8101
X60601Y7601
X62101Y7101
X61851Y5101
X61351Y4601
X60601Y5101
X60101Y4601
X62601Y4101
X61851Y2351
X61351Y1851
X55601Y5101
X61101Y9101
X63101Y9101
X64101Y10101
X63101Y11101
X64601Y12101
X65101Y12601
X67101Y13101
X70601Y15101
X64101Y16101
X63101Y17101
X62601Y15101
X59851Y18101
X61601Y19601
X62101Y20101
X61101Y21101
X62101Y22601
X61101Y23101
X69601Y20101
X70601Y21101
X71601Y31101
X69601Y32101
X71101Y34101
X70601Y35101
X64101Y37101
X63601Y36101
X63101Y35101
X62601Y33601
X61101Y33101
X62101Y36601
X61601Y37601
X55601Y41601
X58101Y42101
X58351Y44101
X57101Y45601
X55101Y48351
X63601Y48351
X71101Y48101
X51101Y33601
X50601Y32101
X52601Y31601
X55351Y31351
X39101Y28601
X39101Y26101
X38351Y25601
X30101Y20101
X28101Y21601
X28601Y18101
X38501Y12601
X39101Y10601
X64601Y7601
X65101Y8101
X67101Y10601
X69601Y9101
X69101Y8101
X68601Y7101
X69101Y4601
X69601Y4101
X70101Y3101
T02
X7101Y36601
X15101Y48101
T03
X16101Y46851
X16101Y45851
X18351Y47101
X18351Y48101
X21601Y48101
X21601Y47101
X20601Y44101
X19601Y44101
X18601Y43101
X18601Y42101
X18601Y41101
X18601Y40101
X18601Y39101
X18601Y38101
X18601Y37101
X18601Y36101
X18601Y35101
X18601Y34101
X21601Y34101
X21601Y35101
X21601Y36101
X21601Y37101
X21601Y38101
X21601Y39101
X21601Y40101
X21601Y41101
X21601Y42101
X21601Y43101
X12601Y37601
X12601Y36601
X12601Y35601
X12601Y34601
X12601Y33601
X12601Y32601
X12601Y31601
X12601Y30601
X12601Y29601
X12601Y28601
X9601Y28601
X9601Y29601
X9601Y30601
X9601Y31601
X9601Y32601
X9601Y33601
X9601Y34601
X9601Y35601
X9601Y36601
X9601Y37601
X10601Y38601
X11601Y38601
X6351Y39351
X5351Y39351
X3851Y39351
X3851Y38351
X3851Y37351
X3851Y36351
X3851Y35351
X3851Y34351
X3851Y33351
X3851Y32351
X3851Y31351
X3851Y30351
X3851Y29351
X3851Y28351
X3851Y27351
X3851Y26351
X3851Y25351
X3851Y24351
X5351Y25351
X6351Y25351
X6351Y27351
X5351Y27351
X5351Y29351
X6351Y29351
X6351Y31351
X5351Y31351
X5351Y33351
X6351Y33351
X6351Y35351
X5351Y35351
X5351Y37351
X6351Y37351
X18601Y30101
X18601Y29101
X18601Y28101
X18601Y27101
X18601Y26101
X18601Y25101
X18601Y24101
X18601Y23101
X18601Y22101
X18601Y21101
X21601Y21101
X21601Y22101
X21601Y23101
X21601Y24101
X21601Y25101
X21601Y26101
X21601Y27101
X21601Y28101
X21601Y29101
X21601Y30101
X20601Y31101
X19601Y31101
X31101Y33101
X31101Y34101
X31101Y35101
X31101Y36101
X32101Y37101
X33101Y37101
X34601Y37101
X34601Y38101
X34601Y39101
X34601Y40101
X34601Y41101
X34601Y42101
X34601Y43101
X34601Y44101
X34601Y45101
X34601Y46101
X40601Y46101
X40601Y45101
X40601Y44101
X40601Y43101
X40601Y42101
X40601Y41101
X40601Y40101
X40601Y39101
X40601Y38101
X40601Y37101
X40601Y36101
X40601Y35101
X40601Y34101
X40601Y33101
X40601Y32101
X40601Y31101
X40601Y30101
X40601Y29101
X40601Y28101
X40601Y27101
X38101Y24101
X37101Y24101
X34601Y22601
X34601Y21601
X34601Y20601
X34601Y19601
X34601Y18601
X34601Y17601
X34601Y16601
X34601Y15601
X34601Y14601
X34601Y13601
X34601Y12601
X34601Y11601
X34601Y10601
X34601Y9601
X34601Y8601
X34601Y7601
X40601Y7601
X40601Y8601
X40601Y9601
X40601Y10601
X40601Y11601
X40601Y12601
X40601Y13601
X40601Y14601
X40601Y15601
X40601Y16601
X40601Y17601
X40601Y18601
X40601Y19601
X40601Y20601
X40601Y21601
X40601Y22601
X46101Y25101
X47101Y25101
X51101Y22601
X51101Y21601
X51101Y20601
X50351Y20101
X51101Y19601
X52351Y19601
X53601Y19601
X53601Y18601
X53601Y20601
X52351Y20601
X53601Y21601
X56601Y21601
X56601Y22601
X57601Y22601
X57851Y21601
X58851Y21601
X59851Y21601
X59851Y20601
X58851Y20601
X57851Y20601
X57851Y19601
X58851Y19601
X58851Y18601
X57851Y18601
X56601Y18601
X56601Y19601
X56601Y20601
X55101Y25101
X55101Y26101
X53601Y26101
X52101Y26101
X52101Y25101
X53601Y25101
X53351Y27101
X53351Y28101
X52351Y28101
X51601Y28601
X51601Y27601
X52351Y29601
X53351Y29601
X53351Y30601
X52351Y30601
X49601Y31101
X49601Y30101
X43101Y36101
X42101Y36101
X42101Y38101
X43101Y38101
X34601Y36101
X34601Y35101
X34601Y34101
X34601Y33101
X34601Y32101
X34601Y31101
X34601Y30101
X34601Y29101
X34601Y28101
X34601Y27101
X32851Y33151
X32851Y35051
X42101Y44101
X43101Y44101
X52601Y43851
X52601Y44851
X52601Y45851
X52601Y46851
X53801Y47101
X53801Y48101
X54601Y46101
X55601Y46101
X57101Y44601
X57101Y43601
X57101Y42601
X57101Y41601
X54101Y41601
X54101Y42601
X54101Y43601
X54101Y44601
X59101Y47101
X59101Y48101
X62601Y44601
X63601Y44601
X63601Y43601
X62601Y43601
X62601Y42601
X63601Y42601
X63601Y41601
X62601Y41601
X61601Y41601
X61601Y42601
X60601Y42601
X60601Y41601
X65101Y39101
X65101Y38101
X65101Y37101
X65101Y36101
X65101Y35101
X65101Y34101
X65101Y33101
X65101Y32101
X65101Y31101
X65101Y30101
X68101Y30101
X68101Y31101
X68101Y32101
X68101Y33101
X68101Y34101
X68101Y35101
X68101Y36101
X68101Y37101
X68101Y38101
X68101Y39101
X67101Y40101
X66101Y40101
X73101Y39101
X73101Y38101
X75101Y38601
X75101Y37601
X73101Y34101
X73101Y33101
X75101Y33601
X75101Y32601
X73101Y29101
X73101Y28101
X75101Y28601
X75101Y27601
X73101Y24101
X73101Y23101
X75101Y23601
X75101Y22601
X75101Y18601
X75101Y17601
X73101Y18101
X73101Y19101
X68101Y19101
X68101Y18101
X68101Y17101
X68101Y16101
X68101Y15101
X68101Y14101
X65101Y14101
X65101Y15101
X65101Y16101
X65101Y17101
X65101Y18101
X65101Y19101
X65101Y20101
X65101Y21101
X65101Y22101
X65101Y23101
X66101Y24101
X67101Y24101
X68101Y23101
X68101Y22101
X68101Y21101
X68101Y20101
X65101Y24601
X65101Y25601
X58601Y15601
X57601Y15601
X56601Y15601
X56601Y14601
X56601Y13601
X56601Y12601
X56601Y11601
X56601Y10601
X56601Y9601
X56601Y8601
X58101Y8601
X59101Y8601
X59101Y10101
X59101Y11101
X59101Y12101
X58101Y12101
X58101Y11101
X58101Y10101
X61101Y10101
X62101Y10101
X62101Y11101
X61101Y11101
X61101Y12101
X62101Y12101
X62101Y13101
X61101Y13101
X53601Y13601
X53601Y14601
X53601Y15601
X49601Y14101
X48601Y14101
X46601Y14101
X45601Y14101
X52351Y10601
X53601Y10601
X53601Y11601
X53601Y12601
X53601Y9601
X52351Y9601
X53601Y8601
X49601Y6601
X48601Y6601
X46601Y6601
X45601Y6601
X71101Y7101
X72101Y7101
X72101Y8101
X71101Y8101
X71101Y9101
X72101Y9101
X72101Y10101
X71101Y10101
X74101Y10101
X75101Y10101
X75101Y8601
X75101Y7601
X75101Y12601
X75101Y13601
X73101Y14101
X73101Y13101
X75101Y42601
X75101Y43601
X73101Y44101
X73101Y43101
X19501Y8851
X18701Y8851
X16751Y8851
X15951Y8851
X12101Y10101
X12101Y11101
X12101Y12101
X12101Y13101
X12101Y14101
X12101Y15101
X12101Y16101
X13601Y15101
X14601Y15101
X14601Y13851
X13601Y13851
X9101Y14101
X7851Y14101
X6851Y14101
X6851Y15351
X7851Y15351
X9101Y15101
X9101Y16101
X7851Y16601
X6851Y16601
X10101Y17601
X11101Y17601
X5101Y14101
X5101Y13101
X3401Y13101
X2401Y13101
X2401Y14101
X3401Y14101
X3601Y11101
X2601Y11101
X4101Y9101
X4101Y8101
X9101Y10101
X9101Y11101
X9101Y12101
X9101Y13101
T04
X8101Y1601
X7101Y1601
X6101Y1601
X12601Y1601
X13601Y1601
X14601Y1601
X19101Y1601
X20101Y1601
X21101Y1601
X25601Y1601
X26601Y1601
X27601Y1601
X46601Y7601
X47601Y7601
X48601Y7601
X48601Y15101
X47601Y15101
X46601Y15101
X57101Y25101
X58101Y25101
X59101Y25101
X66617Y42648
X67601Y42648
X68585Y42648
T05
X56851Y48101
X55851Y48101
X52601Y48101
X51601Y48101
X50101Y48101
X49101Y48101
X48101Y48101
X46601Y48101
X45601Y48101
X32101Y42101
X32101Y41101
X32101Y40101
X24101Y42101
X24101Y43101
X24101Y44101
X24101Y45101
X13601Y46601
X13601Y48601
X6101Y48601
X5101Y48601
X2101Y45351
X1101Y45351
X3601Y44101
X3601Y42101
X8101Y42101
X9101Y42101
X10101Y42101
X42101Y35101
X42101Y34101
X46101Y28601
X47101Y28601
X47101Y27601
X46101Y27601
X46101Y26601
X47101Y26601
X58101Y6601
X59101Y6601
X60381Y2991
X60381Y1211
X57821Y1211
X57821Y2991
X54881Y2991
X54881Y1211
X52321Y1211
X52321Y2991
X49381Y2991
X49381Y1211
X46821Y1211
X46821Y2991
X43881Y2991
X43881Y1211
X41321Y1211
X41321Y2991
X38381Y2991
X38381Y1211
X35821Y1211
X35821Y2991
X32881Y2991
X32881Y1211
X30321Y1211
X30321Y2991
X2601Y8101
X2601Y9101
X2601Y15601
X2601Y16601
X63321Y2991
X63321Y1211
X65881Y1211
X65881Y2991
X68821Y2991
X68821Y1211
X71381Y1211
X71381Y2991
T06
X54601Y27101
X54601Y30101
X59101Y42101
X59101Y45101
X6101Y45601
X6101Y42601
T07
X45701Y17901
X49501Y17901
X49501Y10401
X45701Y10401
X28501Y4401
X24701Y4401
X22001Y4401
X18201Y4401
X15501Y4401
X11701Y4401
X9001Y4401
X5201Y4401
X56201Y27901
X60001Y27901
X65317Y45601
X69884Y45601
T08
X9101Y48001
T09
X2463Y2463
X32101Y7101
X75317Y2463
X75317Y47739
X2463Y47739
M30
