G75*
G70*
%OFA0B0*%
%FSLAX24Y24*%
%IPPOS*%
%LPD*%
%AMOC8*
5,1,8,0,0,1.08239X$1,22.5*
%
%ADD10C,0.0600*%
%ADD11C,0.0680*%
%ADD12C,0.0600*%
%ADD13OC8,0.0600*%
%ADD14C,0.1080*%
%ADD15OC8,0.1080*%
%ADD16OC8,0.0680*%
%ADD17OC8,0.0710*%
%ADD18C,0.0710*%
%ADD19C,0.1458*%
%ADD20R,0.0674X0.0674*%
%ADD21OC8,0.1346*%
%ADD22C,0.1380*%
%ADD23R,0.1346X0.1346*%
%ADD24C,0.0740*%
%ADD25C,0.0555*%
%ADD26C,0.0476*%
D10*
X008841Y010101D02*
X009361Y010101D01*
X009361Y011101D02*
X008841Y011101D01*
X008841Y012101D02*
X009361Y012101D01*
X009361Y013101D02*
X008841Y013101D01*
X008841Y014101D02*
X009361Y014101D01*
X009361Y015101D02*
X008841Y015101D01*
X008841Y016101D02*
X009361Y016101D01*
X011841Y016101D02*
X012361Y016101D01*
X012361Y015101D02*
X011841Y015101D01*
X011841Y014101D02*
X012361Y014101D01*
X012361Y013101D02*
X011841Y013101D01*
X011841Y012101D02*
X012361Y012101D01*
X012361Y011101D02*
X011841Y011101D01*
X011841Y010101D02*
X012361Y010101D01*
X018341Y021101D02*
X018861Y021101D01*
X018861Y022101D02*
X018341Y022101D01*
X018341Y023101D02*
X018861Y023101D01*
X018861Y024101D02*
X018341Y024101D01*
X018341Y025101D02*
X018861Y025101D01*
X018861Y026101D02*
X018341Y026101D01*
X018341Y027101D02*
X018861Y027101D01*
X018861Y028101D02*
X018341Y028101D01*
X018341Y029101D02*
X018861Y029101D01*
X018861Y030101D02*
X018341Y030101D01*
X021341Y030101D02*
X021861Y030101D01*
X021861Y029101D02*
X021341Y029101D01*
X021341Y028101D02*
X021861Y028101D01*
X021861Y027101D02*
X021341Y027101D01*
X021341Y026101D02*
X021861Y026101D01*
X021861Y025101D02*
X021341Y025101D01*
X021341Y024101D02*
X021861Y024101D01*
X021861Y023101D02*
X021341Y023101D01*
X021341Y022101D02*
X021861Y022101D01*
X021861Y021101D02*
X021341Y021101D01*
X012861Y028601D02*
X012341Y028601D01*
X012341Y029601D02*
X012861Y029601D01*
X012861Y030601D02*
X012341Y030601D01*
X012341Y031601D02*
X012861Y031601D01*
X012861Y032601D02*
X012341Y032601D01*
X012341Y033601D02*
X012861Y033601D01*
X012861Y034601D02*
X012341Y034601D01*
X012341Y035601D02*
X012861Y035601D01*
X012861Y036601D02*
X012341Y036601D01*
X012341Y037601D02*
X012861Y037601D01*
X009861Y037601D02*
X009341Y037601D01*
X009341Y036601D02*
X009861Y036601D01*
X009861Y035601D02*
X009341Y035601D01*
X009341Y034601D02*
X009861Y034601D01*
X009861Y033601D02*
X009341Y033601D01*
X009341Y032601D02*
X009861Y032601D01*
X009861Y031601D02*
X009341Y031601D01*
X009341Y030601D02*
X009861Y030601D01*
X009861Y029601D02*
X009341Y029601D01*
X009341Y028601D02*
X009861Y028601D01*
X018341Y034101D02*
X018861Y034101D01*
X018861Y035101D02*
X018341Y035101D01*
X018341Y036101D02*
X018861Y036101D01*
X018861Y037101D02*
X018341Y037101D01*
X018341Y038101D02*
X018861Y038101D01*
X018861Y039101D02*
X018341Y039101D01*
X018341Y040101D02*
X018861Y040101D01*
X018861Y041101D02*
X018341Y041101D01*
X018341Y042101D02*
X018861Y042101D01*
X018861Y043101D02*
X018341Y043101D01*
X021341Y043101D02*
X021861Y043101D01*
X021861Y042101D02*
X021341Y042101D01*
X021341Y041101D02*
X021861Y041101D01*
X021861Y040101D02*
X021341Y040101D01*
X021341Y039101D02*
X021861Y039101D01*
X021861Y038101D02*
X021341Y038101D01*
X021341Y037101D02*
X021861Y037101D01*
X021861Y036101D02*
X021341Y036101D01*
X021341Y035101D02*
X021861Y035101D01*
X021861Y034101D02*
X021341Y034101D01*
X034341Y034101D02*
X034861Y034101D01*
X034861Y035101D02*
X034341Y035101D01*
X034341Y036101D02*
X034861Y036101D01*
X034861Y037101D02*
X034341Y037101D01*
X034341Y038101D02*
X034861Y038101D01*
X034861Y039101D02*
X034341Y039101D01*
X034341Y040101D02*
X034861Y040101D01*
X034861Y041101D02*
X034341Y041101D01*
X034341Y042101D02*
X034861Y042101D01*
X034861Y043101D02*
X034341Y043101D01*
X034341Y044101D02*
X034861Y044101D01*
X034861Y045101D02*
X034341Y045101D01*
X034341Y046101D02*
X034861Y046101D01*
X040341Y046101D02*
X040861Y046101D01*
X040861Y045101D02*
X040341Y045101D01*
X040341Y044101D02*
X040861Y044101D01*
X040861Y043101D02*
X040341Y043101D01*
X040341Y042101D02*
X040861Y042101D01*
X040861Y041101D02*
X040341Y041101D01*
X040341Y040101D02*
X040861Y040101D01*
X040861Y039101D02*
X040341Y039101D01*
X040341Y038101D02*
X040861Y038101D01*
X040861Y037101D02*
X040341Y037101D01*
X040341Y036101D02*
X040861Y036101D01*
X040861Y035101D02*
X040341Y035101D01*
X040341Y034101D02*
X040861Y034101D01*
X040861Y033101D02*
X040341Y033101D01*
X040341Y032101D02*
X040861Y032101D01*
X040861Y031101D02*
X040341Y031101D01*
X040341Y030101D02*
X040861Y030101D01*
X040861Y029101D02*
X040341Y029101D01*
X040341Y028101D02*
X040861Y028101D01*
X040861Y027101D02*
X040341Y027101D01*
X034861Y027101D02*
X034341Y027101D01*
X034341Y028101D02*
X034861Y028101D01*
X034861Y029101D02*
X034341Y029101D01*
X034341Y030101D02*
X034861Y030101D01*
X034861Y031101D02*
X034341Y031101D01*
X034341Y032101D02*
X034861Y032101D01*
X034861Y033101D02*
X034341Y033101D01*
X034341Y022601D02*
X034861Y022601D01*
X034861Y021601D02*
X034341Y021601D01*
X034341Y020601D02*
X034861Y020601D01*
X034861Y019601D02*
X034341Y019601D01*
X034341Y018601D02*
X034861Y018601D01*
X034861Y017601D02*
X034341Y017601D01*
X034341Y016601D02*
X034861Y016601D01*
X034861Y015601D02*
X034341Y015601D01*
X034341Y014601D02*
X034861Y014601D01*
X034861Y013601D02*
X034341Y013601D01*
X034341Y012601D02*
X034861Y012601D01*
X034861Y011601D02*
X034341Y011601D01*
X034341Y010601D02*
X034861Y010601D01*
X034861Y009601D02*
X034341Y009601D01*
X034341Y008601D02*
X034861Y008601D01*
X034861Y007601D02*
X034341Y007601D01*
X040341Y007601D02*
X040861Y007601D01*
X040861Y008601D02*
X040341Y008601D01*
X040341Y009601D02*
X040861Y009601D01*
X040861Y010601D02*
X040341Y010601D01*
X040341Y011601D02*
X040861Y011601D01*
X040861Y012601D02*
X040341Y012601D01*
X040341Y013601D02*
X040861Y013601D01*
X040861Y014601D02*
X040341Y014601D01*
X040341Y015601D02*
X040861Y015601D01*
X040861Y016601D02*
X040341Y016601D01*
X040341Y017601D02*
X040861Y017601D01*
X040861Y018601D02*
X040341Y018601D01*
X040341Y019601D02*
X040861Y019601D01*
X040861Y020601D02*
X040341Y020601D01*
X040341Y021601D02*
X040861Y021601D01*
X040861Y022601D02*
X040341Y022601D01*
X053341Y021601D02*
X053861Y021601D01*
X053861Y020601D02*
X053341Y020601D01*
X053341Y019601D02*
X053861Y019601D01*
X053861Y018601D02*
X053341Y018601D01*
X056341Y018601D02*
X056861Y018601D01*
X056861Y019601D02*
X056341Y019601D01*
X056341Y020601D02*
X056861Y020601D01*
X056861Y021601D02*
X056341Y021601D01*
X056341Y015601D02*
X056861Y015601D01*
X056861Y014601D02*
X056341Y014601D01*
X056341Y013601D02*
X056861Y013601D01*
X056861Y012601D02*
X056341Y012601D01*
X056341Y011601D02*
X056861Y011601D01*
X056861Y010601D02*
X056341Y010601D01*
X056341Y009601D02*
X056861Y009601D01*
X056861Y008601D02*
X056341Y008601D01*
X053861Y008601D02*
X053341Y008601D01*
X053341Y009601D02*
X053861Y009601D01*
X053861Y010601D02*
X053341Y010601D01*
X053341Y011601D02*
X053861Y011601D01*
X053861Y012601D02*
X053341Y012601D01*
X053341Y013601D02*
X053861Y013601D01*
X053861Y014601D02*
X053341Y014601D01*
X053341Y015601D02*
X053861Y015601D01*
X064841Y016101D02*
X065361Y016101D01*
X065361Y017101D02*
X064841Y017101D01*
X064841Y018101D02*
X065361Y018101D01*
X065361Y019101D02*
X064841Y019101D01*
X064841Y020101D02*
X065361Y020101D01*
X065361Y021101D02*
X064841Y021101D01*
X064841Y022101D02*
X065361Y022101D01*
X065361Y023101D02*
X064841Y023101D01*
X067841Y023101D02*
X068361Y023101D01*
X068361Y022101D02*
X067841Y022101D01*
X067841Y021101D02*
X068361Y021101D01*
X068361Y020101D02*
X067841Y020101D01*
X067841Y019101D02*
X068361Y019101D01*
X068361Y018101D02*
X067841Y018101D01*
X067841Y017101D02*
X068361Y017101D01*
X068361Y016101D02*
X067841Y016101D01*
X067841Y015101D02*
X068361Y015101D01*
X068361Y014101D02*
X067841Y014101D01*
X065361Y014101D02*
X064841Y014101D01*
X064841Y015101D02*
X065361Y015101D01*
X065361Y030101D02*
X064841Y030101D01*
X064841Y031101D02*
X065361Y031101D01*
X065361Y032101D02*
X064841Y032101D01*
X064841Y033101D02*
X065361Y033101D01*
X065361Y034101D02*
X064841Y034101D01*
X064841Y035101D02*
X065361Y035101D01*
X065361Y036101D02*
X064841Y036101D01*
X064841Y037101D02*
X065361Y037101D01*
X065361Y038101D02*
X064841Y038101D01*
X064841Y039101D02*
X065361Y039101D01*
X067841Y039101D02*
X068361Y039101D01*
X068361Y038101D02*
X067841Y038101D01*
X067841Y037101D02*
X068361Y037101D01*
X068361Y036101D02*
X067841Y036101D01*
X067841Y035101D02*
X068361Y035101D01*
X068361Y034101D02*
X067841Y034101D01*
X067841Y033101D02*
X068361Y033101D01*
X068361Y032101D02*
X067841Y032101D01*
X067841Y031101D02*
X068361Y031101D01*
X068361Y030101D02*
X067841Y030101D01*
X057361Y041601D02*
X056841Y041601D01*
X056841Y042601D02*
X057361Y042601D01*
X057361Y043601D02*
X056841Y043601D01*
X056841Y044601D02*
X057361Y044601D01*
X054361Y044601D02*
X053841Y044601D01*
X053841Y043601D02*
X054361Y043601D01*
X054361Y042601D02*
X053841Y042601D01*
X053841Y041601D02*
X054361Y041601D01*
D11*
X055851Y047801D02*
X055851Y048401D01*
X056851Y048401D02*
X056851Y047801D01*
X052601Y047801D02*
X052601Y048401D01*
X051601Y048401D02*
X051601Y047801D01*
X050101Y047801D02*
X050101Y048401D01*
X049101Y048401D02*
X049101Y047801D01*
X048101Y047801D02*
X048101Y048401D01*
X046601Y048401D02*
X046601Y047801D01*
X045601Y047801D02*
X045601Y048401D01*
X032401Y042101D02*
X031801Y042101D01*
X031801Y041101D02*
X032401Y041101D01*
X032401Y040101D02*
X031801Y040101D01*
X024401Y042101D02*
X023801Y042101D01*
X023801Y043101D02*
X024401Y043101D01*
X024401Y044101D02*
X023801Y044101D01*
X023801Y045101D02*
X024401Y045101D01*
X010101Y042401D02*
X010101Y041801D01*
X009101Y041801D02*
X009101Y042401D01*
X008101Y042401D02*
X008101Y041801D01*
X002101Y045051D02*
X002101Y045651D01*
X001101Y045651D02*
X001101Y045051D01*
X005101Y048301D02*
X005101Y048901D01*
X006101Y048901D02*
X006101Y048301D01*
X002901Y016601D02*
X002301Y016601D01*
X002301Y015601D02*
X002901Y015601D01*
X002901Y009101D02*
X002301Y009101D01*
X002301Y008101D02*
X002901Y008101D01*
X030021Y002991D02*
X030621Y002991D01*
X032581Y002991D02*
X033181Y002991D01*
X033181Y001211D02*
X032581Y001211D01*
X030621Y001211D02*
X030021Y001211D01*
X035521Y001211D02*
X036121Y001211D01*
X036121Y002991D02*
X035521Y002991D01*
X038081Y002991D02*
X038681Y002991D01*
X038681Y001211D02*
X038081Y001211D01*
X041021Y001211D02*
X041621Y001211D01*
X041621Y002991D02*
X041021Y002991D01*
X043581Y002991D02*
X044181Y002991D01*
X044181Y001211D02*
X043581Y001211D01*
X046521Y001211D02*
X047121Y001211D01*
X047121Y002991D02*
X046521Y002991D01*
X049081Y002991D02*
X049681Y002991D01*
X049681Y001211D02*
X049081Y001211D01*
X052021Y001211D02*
X052621Y001211D01*
X052621Y002991D02*
X052021Y002991D01*
X054581Y002991D02*
X055181Y002991D01*
X055181Y001211D02*
X054581Y001211D01*
X057521Y001211D02*
X058121Y001211D01*
X058121Y002991D02*
X057521Y002991D01*
X060081Y002991D02*
X060681Y002991D01*
X060681Y001211D02*
X060081Y001211D01*
X063021Y001211D02*
X063621Y001211D01*
X063621Y002991D02*
X063021Y002991D01*
X065581Y002991D02*
X066181Y002991D01*
X066181Y001211D02*
X065581Y001211D01*
X068521Y001211D02*
X069121Y001211D01*
X069121Y002991D02*
X068521Y002991D01*
X071081Y002991D02*
X071681Y002991D01*
X071681Y001211D02*
X071081Y001211D01*
X059101Y006301D02*
X059101Y006901D01*
X058101Y006901D02*
X058101Y006301D01*
D12*
X075101Y007601D03*
X075101Y008601D03*
X075101Y012601D03*
X075101Y013601D03*
X075101Y017601D03*
X075101Y018601D03*
X075101Y022601D03*
X075101Y023601D03*
X075101Y027601D03*
X075101Y028601D03*
X075101Y032601D03*
X075101Y033601D03*
X075101Y037601D03*
X075101Y038601D03*
X075101Y042601D03*
X075101Y043601D03*
X032851Y035051D03*
X032851Y033151D03*
X018351Y047101D03*
X018351Y048101D03*
X019501Y008851D03*
X016751Y008851D03*
D13*
X015951Y008851D03*
X018701Y008851D03*
X014601Y013851D03*
X013601Y013851D03*
X013601Y015101D03*
X014601Y015101D03*
X011101Y017601D03*
X010101Y017601D03*
X007851Y016601D03*
X006851Y016601D03*
X006851Y015351D03*
X007851Y015351D03*
X007851Y014101D03*
X006851Y014101D03*
X003401Y014101D03*
X002401Y014101D03*
X002401Y013101D03*
X003401Y013101D03*
X004101Y009101D03*
X004101Y008101D03*
X003851Y024351D03*
X003851Y025351D03*
X003851Y026351D03*
X003851Y027351D03*
X003851Y028351D03*
X003851Y029351D03*
X003851Y030351D03*
X003851Y031351D03*
X003851Y032351D03*
X003851Y033351D03*
X003851Y034351D03*
X003851Y035351D03*
X003851Y036351D03*
X003851Y037351D03*
X003851Y038351D03*
X003851Y039351D03*
X005351Y039351D03*
X006351Y039351D03*
X006351Y037351D03*
X005351Y037351D03*
X005351Y035351D03*
X006351Y035351D03*
X006351Y033351D03*
X005351Y033351D03*
X005351Y031351D03*
X006351Y031351D03*
X006351Y029351D03*
X005351Y029351D03*
X005351Y027351D03*
X006351Y027351D03*
X006351Y025351D03*
X005351Y025351D03*
X019601Y031101D03*
X020601Y031101D03*
X031101Y033101D03*
X031101Y034101D03*
X031101Y035101D03*
X031101Y036101D03*
X032101Y037101D03*
X033101Y037101D03*
X042101Y038101D03*
X043101Y038101D03*
X043101Y036101D03*
X042101Y036101D03*
X049601Y031101D03*
X049601Y030101D03*
X051601Y028601D03*
X052351Y028101D03*
X051601Y027601D03*
X053351Y028101D03*
X053351Y027101D03*
X053601Y026101D03*
X052101Y026101D03*
X052101Y025101D03*
X053601Y025101D03*
X055101Y025101D03*
X055101Y026101D03*
X056601Y022601D03*
X057601Y022601D03*
X057851Y021601D03*
X058851Y021601D03*
X059851Y021601D03*
X059851Y020601D03*
X058851Y020601D03*
X057851Y020601D03*
X057851Y019601D03*
X058851Y019601D03*
X058851Y018601D03*
X057851Y018601D03*
X057601Y015601D03*
X058601Y015601D03*
X061101Y013101D03*
X062101Y013101D03*
X062101Y012101D03*
X061101Y012101D03*
X061101Y011101D03*
X062101Y011101D03*
X062101Y010101D03*
X061101Y010101D03*
X059101Y010101D03*
X059101Y011101D03*
X059101Y012101D03*
X058101Y012101D03*
X058101Y011101D03*
X058101Y010101D03*
X058101Y008601D03*
X059101Y008601D03*
X052351Y009601D03*
X052351Y010601D03*
X049601Y014101D03*
X048601Y014101D03*
X046601Y014101D03*
X045601Y014101D03*
X051101Y019601D03*
X050351Y020101D03*
X051101Y020601D03*
X051101Y021601D03*
X051101Y022601D03*
X052351Y020601D03*
X052351Y019601D03*
X047101Y025101D03*
X046101Y025101D03*
X052351Y029601D03*
X053351Y029601D03*
X053351Y030601D03*
X052351Y030601D03*
X065101Y025601D03*
X065101Y024601D03*
X066101Y024101D03*
X067101Y024101D03*
X073101Y024101D03*
X073101Y023101D03*
X073101Y019101D03*
X073101Y018101D03*
X073101Y014101D03*
X073101Y013101D03*
X074101Y010101D03*
X075101Y010101D03*
X072101Y010101D03*
X071101Y010101D03*
X071101Y009101D03*
X072101Y009101D03*
X072101Y008101D03*
X071101Y008101D03*
X071101Y007101D03*
X072101Y007101D03*
X049601Y006601D03*
X048601Y006601D03*
X046601Y006601D03*
X045601Y006601D03*
X038101Y024101D03*
X037101Y024101D03*
X011601Y038601D03*
X010601Y038601D03*
X019601Y044101D03*
X020601Y044101D03*
X021601Y047101D03*
X021601Y048101D03*
X016101Y046851D03*
X016101Y045851D03*
X042101Y044101D03*
X043101Y044101D03*
X052601Y043851D03*
X052601Y044851D03*
X052601Y045851D03*
X052601Y046851D03*
X053801Y047101D03*
X053801Y048101D03*
X054601Y046101D03*
X055601Y046101D03*
X059101Y047101D03*
X059101Y048101D03*
X062601Y044601D03*
X063601Y044601D03*
X063601Y043601D03*
X062601Y043601D03*
X062601Y042601D03*
X063601Y042601D03*
X063601Y041601D03*
X062601Y041601D03*
X061601Y041601D03*
X061601Y042601D03*
X060601Y042601D03*
X060601Y041601D03*
X066101Y040101D03*
X067101Y040101D03*
X073101Y039101D03*
X073101Y038101D03*
X073101Y034101D03*
X073101Y033101D03*
X073101Y029101D03*
X073101Y028101D03*
X073101Y043101D03*
X073101Y044101D03*
D14*
X013601Y048601D03*
X003601Y044101D03*
D15*
X003601Y042101D03*
X013601Y046601D03*
D16*
X042101Y035101D03*
X042101Y034101D03*
X046101Y028601D03*
X047101Y028601D03*
X047101Y027601D03*
X046101Y027601D03*
X046101Y026601D03*
X047101Y026601D03*
D17*
X005101Y013101D03*
X002601Y011101D03*
D18*
X003601Y011101D03*
X005101Y014101D03*
D19*
X002463Y002463D03*
X032101Y007101D03*
X075317Y002463D03*
X075317Y047739D03*
X002463Y047739D03*
D20*
X046601Y015101D03*
X047601Y015101D03*
X048601Y015101D03*
X048601Y007601D03*
X047601Y007601D03*
X046601Y007601D03*
X027601Y001601D03*
X026601Y001601D03*
X025601Y001601D03*
X021101Y001601D03*
X020101Y001601D03*
X019101Y001601D03*
X014601Y001601D03*
X013601Y001601D03*
X012601Y001601D03*
X008101Y001601D03*
X007101Y001601D03*
X006101Y001601D03*
X057101Y025101D03*
X058101Y025101D03*
X059101Y025101D03*
X066617Y042648D03*
X067601Y042648D03*
X068585Y042648D03*
D21*
X060001Y027901D03*
X056201Y027901D03*
X049501Y017901D03*
X045701Y017901D03*
X045701Y010401D03*
X049501Y010401D03*
X028501Y004401D03*
X024701Y004401D03*
X022001Y004401D03*
X018201Y004401D03*
X015501Y004401D03*
X011701Y004401D03*
X009001Y004401D03*
X005201Y004401D03*
D22*
X009101Y048001D03*
D23*
X065317Y045601D03*
X069884Y045601D03*
D24*
X059101Y045101D03*
X059101Y042101D03*
X054601Y030101D03*
X054601Y027101D03*
X006101Y042601D03*
X006101Y045601D03*
D25*
X015101Y048101D03*
X007101Y036601D03*
D26*
X008101Y037351D03*
X011601Y034601D03*
X013601Y035101D03*
X015601Y035101D03*
X016101Y035601D03*
X017101Y036101D03*
X016601Y037101D03*
X015601Y039101D03*
X013601Y038101D03*
X017101Y041101D03*
X016101Y044601D03*
X016601Y045101D03*
X017601Y045601D03*
X017101Y046101D03*
X020601Y048101D03*
X026601Y044101D03*
X027101Y043601D03*
X027601Y044601D03*
X028601Y042601D03*
X029101Y042101D03*
X028101Y041601D03*
X025101Y042601D03*
X024601Y041101D03*
X023601Y041101D03*
X022601Y040601D03*
X023101Y039601D03*
X025101Y039101D03*
X025601Y038101D03*
X022601Y037101D03*
X024101Y036101D03*
X026101Y035101D03*
X026601Y034101D03*
X023601Y033601D03*
X023101Y033101D03*
X022601Y032601D03*
X024101Y032101D03*
X027101Y029601D03*
X026601Y029101D03*
X028101Y029101D03*
X029101Y030101D03*
X030601Y031101D03*
X030601Y028101D03*
X027601Y027601D03*
X027101Y026101D03*
X027601Y025101D03*
X024101Y023101D03*
X023601Y022601D03*
X024601Y022101D03*
X025101Y020601D03*
X026101Y019601D03*
X025601Y019101D03*
X026601Y018601D03*
X027101Y017601D03*
X027601Y016601D03*
X028101Y016101D03*
X028601Y018101D03*
X030101Y020101D03*
X028101Y021601D03*
X031101Y024601D03*
X031601Y025601D03*
X036101Y028101D03*
X035601Y030101D03*
X036601Y032601D03*
X037601Y036101D03*
X038601Y037101D03*
X037601Y037601D03*
X038101Y041101D03*
X036601Y041601D03*
X038101Y043601D03*
X039101Y044601D03*
X039601Y046101D03*
X041101Y048101D03*
X041601Y048351D03*
X040601Y049101D03*
X037601Y048351D03*
X036101Y047351D03*
X035101Y047101D03*
X032851Y046601D03*
X032601Y045851D03*
X032351Y045101D03*
X030601Y045601D03*
X030101Y047601D03*
X031101Y048351D03*
X033101Y043101D03*
X029601Y037601D03*
X017601Y030601D03*
X016101Y031101D03*
X016601Y032601D03*
X011601Y029101D03*
X008101Y029101D03*
X007601Y027351D03*
X001851Y024351D03*
X003101Y021601D03*
X003851Y019851D03*
X003101Y019101D03*
X001851Y018101D03*
X004601Y017101D03*
X006101Y012351D03*
X016101Y013851D03*
X018101Y017101D03*
X016601Y019101D03*
X017101Y019601D03*
X017601Y020101D03*
X015601Y021601D03*
X016101Y023101D03*
X016601Y024101D03*
X020601Y027601D03*
X023101Y027101D03*
X023601Y026601D03*
X023601Y028101D03*
X022601Y024101D03*
X022101Y020101D03*
X021601Y019601D03*
X021101Y019101D03*
X022601Y015601D03*
X023601Y014601D03*
X023101Y013601D03*
X022101Y013601D03*
X021601Y013101D03*
X021101Y012601D03*
X019601Y007101D03*
X019601Y005101D03*
X016601Y005101D03*
X016601Y007101D03*
X029601Y014101D03*
X031101Y013601D03*
X031601Y012601D03*
X030601Y011601D03*
X038501Y012601D03*
X039101Y010601D03*
X044101Y016601D03*
X047601Y016601D03*
X048601Y016601D03*
X042101Y020601D03*
X048601Y023101D03*
X045101Y026601D03*
X044601Y027101D03*
X043101Y028101D03*
X042601Y027601D03*
X042101Y029101D03*
X039101Y028601D03*
X039101Y026101D03*
X038351Y025601D03*
X048101Y027101D03*
X052601Y031601D03*
X050601Y032101D03*
X051101Y033601D03*
X047601Y036601D03*
X048101Y037101D03*
X048601Y037601D03*
X046601Y036101D03*
X046101Y035101D03*
X045601Y034101D03*
X044101Y034601D03*
X044101Y035601D03*
X045101Y038101D03*
X046351Y039601D03*
X048601Y040601D03*
X043601Y042601D03*
X044101Y043601D03*
X044601Y044601D03*
X045101Y045101D03*
X045101Y046101D03*
X043101Y041601D03*
X055101Y048351D03*
X057101Y045601D03*
X058351Y044101D03*
X058101Y042101D03*
X055601Y041601D03*
X061601Y037601D03*
X062101Y036601D03*
X063601Y036101D03*
X064101Y037101D03*
X063101Y035101D03*
X062601Y033601D03*
X061101Y033101D03*
X055351Y031351D03*
X045101Y032101D03*
X044601Y032601D03*
X061101Y023101D03*
X062101Y022601D03*
X061101Y021101D03*
X062101Y020101D03*
X061601Y019601D03*
X059851Y018101D03*
X063101Y017101D03*
X064101Y016101D03*
X062601Y015101D03*
X065101Y012601D03*
X064601Y012101D03*
X063101Y011101D03*
X064101Y010101D03*
X063101Y009101D03*
X065101Y008101D03*
X064601Y007601D03*
X062101Y007101D03*
X060601Y007601D03*
X060101Y008101D03*
X061101Y009101D03*
X060601Y005101D03*
X060101Y004601D03*
X061351Y004601D03*
X061851Y005101D03*
X062601Y004101D03*
X061851Y002351D03*
X061351Y001851D03*
X055601Y005101D03*
X055101Y010601D03*
X067101Y010601D03*
X069601Y009101D03*
X069101Y008101D03*
X068601Y007101D03*
X069101Y004601D03*
X069601Y004101D03*
X070101Y003101D03*
X067101Y013101D03*
X070601Y015101D03*
X069601Y020101D03*
X070601Y021101D03*
X071601Y031101D03*
X069601Y032101D03*
X071101Y034101D03*
X070601Y035101D03*
X071101Y048101D03*
X063601Y048351D03*
X017101Y028101D03*
X008101Y032601D03*
X007601Y033601D03*
X008101Y034101D03*
M02*
